<svg xmlns="http://www.w3.org/2000/svg" xmlns:xlink="http://www.w3.org/1999/xlink" version="1.1" x="0px" y="0px" viewBox="0 0 100 125" enable-background="new 0 0 100 100" xml:space="preserve"><path d="M58.252,8.987c-1.529-0.979-3.778-2.249-6.493-3.277c1.706-0.892,3.825-2.199,5.769-3.96h7.632  c-1.555,2.479-3.647,4.75-6.264,6.758C58.681,8.673,58.467,8.831,58.252,8.987z M59.632,92.409c-2.311-1.726-4.61-2.907-6.319-3.654  c-0.869-0.397-1.942-0.867-3.36-1.473c-0.027-0.011-0.056-0.019-0.083-0.029c-0.213-0.088-2.758-1.136-5.605-3.15  c-0.091-0.064-0.181-0.129-0.272-0.193c-0.015-0.012-0.029-0.022-0.044-0.033c-0.743-0.534-1.493-1.126-2.22-1.779h0.024  c-1.245-1.125-2.432-2.439-3.399-3.937h-0.04c-1.125-1.744-1.933-3.74-2.176-5.99h27.58c-0.229,2.264-0.992,4.258-2.066,5.99H40.768  c1.208,1.558,2.678,2.872,4.109,3.937h13.44c-1.947,1.773-4.08,3.089-5.793,3.985c2.714,1.027,4.964,2.296,6.494,3.274  c0.213-0.154,0.428-0.313,0.642-0.478c6.237-4.785,9.533-11.049,9.533-18.116c0-7.364-3.307-13.726-9.562-18.395  c-1.199-0.897-2.398-1.646-3.513-2.264c-1.766-1.05-4.201-2.375-6.932-3.198c-0.028-0.008-0.056-0.02-0.083-0.03  c-0.214-0.086-2.758-1.135-5.606-3.152c-0.09-0.064-0.181-0.128-0.272-0.193c-0.014-0.01-0.029-0.021-0.043-0.032  c-0.743-0.534-1.493-1.125-2.22-1.778h0.023c-1.244-1.126-2.432-2.44-3.398-3.937h-0.04c-1.125-1.745-1.933-3.741-2.175-5.991h27.58  c-0.229,2.264-0.993,4.258-2.067,5.991H40.002c1.21,1.557,2.678,2.872,4.11,3.937h13.442c-1.95,1.773-4.082,3.088-5.795,3.983  c2.715,1.028,4.964,2.298,6.493,3.276c0.215-0.155,0.429-0.314,0.644-0.478c6.234-4.786,9.532-11.05,9.532-18.116  c0-7.364-3.506-13.602-9.588-18.494c-0.787-0.632-1.591-1.193-2.381-1.687c0.002-0.001,0.005-0.002,0.007-0.004  c-0.1-0.06-0.211-0.123-0.313-0.185c-1.209-0.732-2.371-1.309-3.363-1.744c-1.105-0.497-2.312-0.971-3.602-1.36  c-0.028-0.008-0.056-0.018-0.083-0.029c-0.214-0.087-2.758-1.136-5.606-3.152c-0.09-0.063-0.181-0.128-0.272-0.193  c-0.014-0.01-0.029-0.022-0.043-0.032c-0.734-0.528-1.474-1.112-2.193-1.755h-7.727c2.461,3.805,5.87,6.584,8.832,8.478  c-0.007,0.003-0.012,0.007-0.019,0.011c1.943,1.209,4.436,2.577,7.094,3.562c1.522,0.563,2.963,1.253,4.303,2.039  c0.025,0.014,0.049,0.028,0.073,0.042c0.035,0.021,0.069,0.041,0.104,0.062c0.802,0.47,1.643,1.015,2.479,1.647  c0.146,0.11,0.283,0.225,0.426,0.338l0.068,0.078c1.493,1.202,2.663,2.38,3.675,3.784l0.047,0.075  c0.503,0.717,0.934,1.459,1.294,2.226c0.501,1.019,0.857,2.059,1.049,3.1c0.048,0.22,0.094,0.442,0.13,0.666H35.5  c0.359-2.152,1.183-4.153,2.473-5.991h19.836c-1.253-1.446-2.841-2.788-4.674-3.937H41.762c0.143-0.113,0.281-0.228,0.428-0.338  c1.557-1.177,3.132-2.062,4.444-2.695c-2.469-1.083-4.69-2.38-6.387-3.479c-0.264,0.185-0.53,0.375-0.797,0.574  c-6.253,4.669-9.561,11.031-9.561,18.395c0,12.511,10.571,19.274,15.74,21.834c1.336,0.71,2.791,1.396,4.306,1.956  c1.521,0.563,2.964,1.253,4.303,2.039c0.024,0.016,0.048,0.028,0.072,0.042c0.034,0.021,0.07,0.042,0.104,0.062  c0.805,0.47,1.645,1.016,2.48,1.647c0.146,0.11,0.284,0.226,0.427,0.337l0.05,0.038c1.494,1.204,2.69,2.469,3.703,3.871l0.036,0.028  c0.504,0.716,0.934,1.459,1.295,2.225c0.501,1.021,0.857,2.06,1.049,3.1c0.047,0.221,0.092,0.442,0.13,0.668H36.265  c0.359-2.153,1.182-4.155,2.473-5.992h19.836c-1.253-1.445-2.842-2.787-4.674-3.938H42.527c0.143-0.111,0.281-0.227,0.428-0.337  c1.557-1.178,3.132-2.062,4.443-2.695c-2.469-1.084-4.689-2.38-6.386-3.479c-0.264,0.186-0.53,0.376-0.797,0.575  c-6.254,4.669-9.561,11.03-9.561,18.395c0,10.087,6.871,16.437,12.242,19.861c-0.019,0.011-0.037,0.021-0.056,0.032  c1.943,1.21,4.436,2.577,7.095,3.562c1.521,0.563,2.964,1.253,4.303,2.04c0.024,0.014,0.048,0.027,0.072,0.041  c0.034,0.021,0.07,0.042,0.104,0.062c0.786,0.461,1.609,0.992,2.427,1.607h8.297C63.678,95.927,61.844,94.061,59.632,92.409z   M40.215,92.409c-2.211,1.651-4.046,3.518-5.503,5.561h8.296c1.54-1.156,3.094-2.029,4.391-2.655  c-2.469-1.085-4.689-2.379-6.386-3.48C40.748,92.021,40.482,92.211,40.215,92.409z"/><text x="0" y="115" fill="#000000" font-size="5px" font-weight="bold" font-family="'Helvetica Neue', Helvetica, Arial-Unicode, Arial, Sans-serif">Created by irene hoffman</text><text x="0" y="120" fill="#000000" font-size="5px" font-weight="bold" font-family="'Helvetica Neue', Helvetica, Arial-Unicode, Arial, Sans-serif">from the Noun Project</text></svg>