<svg xmlns="http://www.w3.org/2000/svg" xmlns:xlink="http://www.w3.org/1999/xlink" version="1.1" x="0px" y="0px" viewBox="0 0 283.46 354.325" enable-background="new 0 0 283.46 283.46" xml:space="preserve"><path fill="#000000" d="M206.883,204.952c-17.613,0-31.891,14.278-31.891,31.892c0,17.61,14.277,31.889,31.891,31.889  c17.611,0,31.889-14.278,31.889-31.889C238.771,219.23,224.494,204.952,206.883,204.952z M206.883,255.978  c-10.568,0-19.136-8.567-19.136-19.134c0-10.569,8.567-19.134,19.136-19.134c10.566,0,19.134,8.564,19.134,19.134  C226.017,247.41,217.449,255.978,206.883,255.978z"/><path fill="#000000" d="M104.835,204.952c-17.612,0-31.89,14.278-31.89,31.892c0,17.61,14.278,31.889,31.89,31.889  c17.612,0,31.89-14.278,31.89-31.889C136.726,219.23,122.447,204.952,104.835,204.952z M104.835,255.978  c-10.568,0-19.134-8.567-19.134-19.134c0-10.569,8.566-19.134,19.134-19.134s19.135,8.564,19.135,19.134  C123.97,247.41,115.403,255.978,104.835,255.978z"/><path fill="#000000" d="M244.245,72.672c-14.808-35.75-49.693-59.058-88.387-59.058c0,31.889,0,63.779,0,95.669  c-27.637,0-55.275,0-82.913,0c0-24.657-19.989-44.645-44.645-44.645c0,4.251,0,8.503,0,12.755c17.612,0,31.89,14.278,31.89,31.89  c0,38.694,23.309,73.578,59.058,88.388c35.749,14.807,76.896,6.622,104.26-20.738C250.868,149.57,259.053,108.421,244.245,72.672z   M214.485,167.911c-47.973,47.975-130.114,21.166-140.552-45.872c31.56,0,63.122,0,94.68,0c0-31.562,0-63.122,0-94.683  C235.651,37.795,262.461,119.938,214.485,167.911z"/><text x="0" y="298.46" fill="#000000" font-size="5px" font-weight="bold" font-family="'Helvetica Neue', Helvetica, Arial-Unicode, Arial, Sans-serif">Created by Martin Vanco</text><text x="0" y="303.46" fill="#000000" font-size="5px" font-weight="bold" font-family="'Helvetica Neue', Helvetica, Arial-Unicode, Arial, Sans-serif">from the Noun Project</text></svg>