<?xml version="1.0" encoding="UTF-8" standalone="no"?>
<svg
   xmlns:dc="http://purl.org/dc/elements/1.1/"
   xmlns:cc="http://creativecommons.org/ns#"
   xmlns:rdf="http://www.w3.org/1999/02/22-rdf-syntax-ns#"
   xmlns:svg="http://www.w3.org/2000/svg"
   xmlns="http://www.w3.org/2000/svg"
   xmlns:sodipodi="http://sodipodi.sourceforge.net/DTD/sodipodi-0.dtd"
   xmlns:inkscape="http://www.inkscape.org/namespaces/inkscape"
   version="1.1"
   x="0px"
   y="0px"
   viewBox="0 0 77.453 125"
   enable-background="new 0 0 77.453 100"
   xml:space="preserve"
   id="svg2"
   inkscape:version="0.91 r13725"
   sodipodi:docname="noun_9540_cc blanc.svg"><metadata
     id="metadata20"><rdf:RDF><cc:Work
         rdf:about=""><dc:format>image/svg+xml</dc:format><dc:type
           rdf:resource="http://purl.org/dc/dcmitype/StillImage" /><dc:title /></cc:Work></rdf:RDF></metadata><defs
     id="defs18" /><sodipodi:namedview
     pagecolor="#ffffff"
     bordercolor="#666666"
     borderopacity="1"
     objecttolerance="10"
     gridtolerance="10"
     guidetolerance="10"
     inkscape:pageopacity="0"
     inkscape:pageshadow="2"
     inkscape:window-width="640"
     inkscape:window-height="480"
     id="namedview16"
     showgrid="false"
     inkscape:zoom="1.888"
     inkscape:cx="38.726501"
     inkscape:cy="62.5"
     inkscape:window-x="0"
     inkscape:window-y="46"
     inkscape:window-maximized="0"
     inkscape:current-layer="svg2" /><path
     fill="#010101"
     d="M46.387,0c-6.592,0-12.353,3.55-15.481,8.842c-0.989-1.784-2.892-4.41-5.811-5.147  c-5.147-1.3-10.822,1.274-13.612,5.473C8.69,13.367,5.433,21.894,0.662,23.546c-3.721,1.29,9.192,2.929,15.241-0.635  c4.007-2.36,6.113-7.254,9.075-7.636c1.08-0.138,2.333,0.051,3.585,0.39c-0.098,0.758-0.153,1.526-0.153,2.312  c0,9.928,8.05,17.976,17.975,17.976c9.928,0,17.976-8.048,17.976-17.976C64.36,8.049,56.313,0,46.387,0z"
     id="path4"
     style="fill:#ffffff" /><path
     fill="#010101"
     d="M41.568,58.715c1.818-3.258,4.829-5.761,8.434-6.921c-1.096-1.269-2.78-3.042-4.545-4.266  c-2.34-1.619-4.86-2.667-6.787-3.312L41.568,58.715z"
     id="path6"
     style="fill:#ffffff" /><path
     fill="#010101"
     d="M76.673,71.613c-1.371-3.02-4.249-4.872-7.338-5.088c-0.325,7.893-6.831,14.221-14.802,14.221  c-6.972,0-12.818-4.84-14.401-11.333l-1.335-5.521c0,0-5.538-27.75-5.543-27.81c-1.439-6.63-9.729-12.172-15.836-10.077  C6.59,29.715,2.769,43.03,1.71,52.414C-1.548,81.268,17.417,100,17.417,100h48.957c0,0-3.227-4.322-7.807-10.587l13.766-6.248  C76.722,81.172,78.661,76.002,76.673,71.613z M43.16,96.049c-0.496,0.187-4.03,1.466-7.337,1.466c-0.978,0-1.934-0.111-2.786-0.396  c-3.454-1.152-5.329-3.56-6.292-5.343c-4.029-0.853-8.407-2.209-10.846-4.313c-4.818-4.16-5.998-11.183-6.117-11.971  c-0.343-2.287,1.231-4.42,3.519-4.765c2.285-0.346,4.413,1.224,4.764,3.504c0.208,1.305,1.207,5.076,3.31,6.89  c0.496,0.429,1.456,0.863,2.696,1.278l-9.747-39.574c-0.229-0.937,0.341-1.882,1.278-2.112c0.934-0.23,1.881,0.342,2.111,1.278  l11.519,46.771c0.035,0.138,1.033,3.754,4.908,5.044c2.181,0.73,6.465-0.527,7.793-1.025c0.901-0.338,1.908,0.119,2.246,1.022  C44.521,94.706,44.062,95.711,43.16,96.049z"
     id="path8"
     style="fill:#ffffff" /><path
     fill="#010101"
     d="M54.533,77.951c6.639,0,12.04-5.402,12.04-12.041s-5.401-12.042-12.04-12.042  c-6.642,0-12.043,5.403-12.043,12.042S47.892,77.951,54.533,77.951z"
     id="path10"
     style="fill:#ffffff" /><text
     x="0"
     y="115"
     fill="#000000"
     font-size="5px"
     font-weight="bold"
     font-family="'Helvetica Neue', Helvetica, Arial-Unicode, Arial, Sans-serif"
     id="text12"
     style="fill:#ffffff;">Created by Luis Prado</text>
<text
     x="0"
     y="120"
     fill="#000000"
     font-size="5px"
     font-weight="bold"
     font-family="'Helvetica Neue', Helvetica, Arial-Unicode, Arial, Sans-serif"
     id="text14"
     style="fill:#ffffff;">from the Noun Project</text>
</svg>