<svg xmlns="http://www.w3.org/2000/svg" xmlns:xlink="http://www.w3.org/1999/xlink" version="1.1" x="0px" y="0px" viewBox="0 0 100 125" enable-background="new 0 0 100 100" xml:space="preserve"><g><polygon points="48.667,78.688 70.666,60.472 72.746,62.191 51.052,80.243  "/><path d="M69.31,78.247l-1.967,1.386l-49.386-49.06l2.042-1.81c7.602,7.553,48.635,48.743,48.635,48.743L69.31,78.247z"/><path d="M19.95,28.959c7.61,7.61,48.987,48.986,48.987,48.986l0.676,0.746l-2.031,0.889L18.455,30.452L19.95,28.959 M19.95,28.17   l-0.394,0.396l-1.494,1.493l-0.393,0.394l0.393,0.395l49.127,49.127l0.269,0.268l0.348-0.152l2.03-0.889l0.708-0.31l-0.518-0.573   L69.35,77.57l-0.01-0.011l-0.01-0.009L20.343,28.565L19.95,28.17z"/><path d="M45.042,95.604c-5.296,0-9.602-4.308-9.602-9.604c0-5.294,4.305-9.604,9.602-9.604c5.295,0,9.603,4.311,9.603,9.604   C54.645,91.296,50.337,95.604,45.042,95.604 M45.042,78.624c-4.068,0-7.376,3.31-7.376,7.376s3.309,7.375,7.376,7.375   c4.066,0,7.375-3.309,7.375-7.375S49.107,78.624,45.042,78.624"/><path d="M45.042,92.367c-3.512,0-6.366-2.855-6.366-6.367c0-3.513,2.854-6.367,6.366-6.367c3.512,0,6.365,2.854,6.365,6.367   C51.407,89.512,48.552,92.367,45.042,92.367 M45.042,79.911c-3.357,0-6.088,2.732-6.088,6.09s2.732,6.088,6.088,6.088   c3.358,0,6.086-2.731,6.086-6.088C51.129,82.644,48.399,79.911,45.042,79.911"/><path d="M23.711,33.764c0,0,3.942,28.901,14.259,28.662H55.64h4.779h22.224c10.312,0.239,11.981-28.662,11.981-28.662h-34.28   h-4.627H23.711z"/><path d="M67.237,3.186l0.03,29.53h27.207c0.026-0.472,0.086-0.935,0.086-1.413C94.561,17.055,83.062,5.36,67.237,3.186"/><path d="M68.163,3.324c-2.089-0.591-3.271,1.181-3.271,2.694c0,0.95,0.583,1.79,1.484,2.37c-0.901,0.578-1.484,1.419-1.484,2.369   c0,0.946,0.583,1.791,1.484,2.369c-0.901,0.579-1.484,1.419-1.484,2.367c0,0.949,0.583,1.791,1.484,2.372   c-0.901,0.577-1.484,1.418-1.484,2.368c0,0.948,0.583,1.789,1.484,2.367c-0.901,0.58-1.484,1.418-1.484,2.369   c0,0.949,0.583,1.793,1.484,2.37c-0.901,0.577-1.484,1.418-1.484,2.369c0,1.514,1.069,3.396,3.271,2.967V3.324z"/><path d="M16.958,30.255l-8.759-8.761c-0.717-0.716-0.717-1.876,0-2.592c0.715-0.715,1.875-0.715,2.592,0l8.759,8.76"/><path d="M10.38,16.087c1.502,0,2.718,1.218,2.718,2.718c0,1.503-1.216,2.721-2.718,2.721c-1.501,0-2.719-1.218-2.719-2.721   C7.661,17.305,8.879,16.087,10.38,16.087"/><path d="M45.042,88.498c-1.377,0-2.498-1.12-2.498-2.498c0-1.376,1.12-2.497,2.498-2.497s2.495,1.121,2.495,2.497   C47.538,87.378,46.419,88.498,45.042,88.498 M45.042,83.612c-1.318,0-2.389,1.071-2.389,2.388c0,1.317,1.072,2.389,2.389,2.389   c1.316,0,2.388-1.072,2.388-2.389S46.359,83.612,45.042,83.612"/><path fill="none" stroke="#000000" stroke-miterlimit="10" d="M45.042,88.498c-1.377,0-2.498-1.12-2.498-2.498   c0-1.376,1.12-2.497,2.498-2.497s2.495,1.121,2.495,2.497C47.538,87.378,46.419,88.498,45.042,88.498z M45.042,83.612   c-1.318,0-2.389,1.071-2.389,2.388c0,1.317,1.072,2.389,2.389,2.389c1.316,0,2.388-1.072,2.388-2.389S46.359,83.612,45.042,83.612z   "/><path d="M44.701,79.782c-0.009,0.428,0.174,3.278,0.174,3.278l-0.292,0.442l-0.018,0.046v-3.783L44.701,79.782z"/><path d="M44.701,88.438c-0.009,0.429,0.174,3.278,0.174,3.278l-0.292,0.442l-0.018,0.047v-3.784L44.701,88.438z"/><polyline points="42.577,85.723 38.906,85.688 38.917,85.931 42.545,86  "/><polyline points="51.342,85.723 47.519,85.688 47.533,85.931 51.309,86  "/><path d="M46.892,84.465c0.325-0.313,2.449-2.437,2.449-2.437l0.341-0.319l-0.146-0.216L46.8,84.229L46.892,84.465z"/><polyline points="43.487,84.037 40.821,81.32 40.66,81.504 43.34,84.329  "/><path d="M49.872,89.862c-0.647-0.472,0.068,0.038-2.734-1.926l-0.359-0.271l-0.187,0.183l3.163,2.214L49.872,89.862z"/><path d="M40.408,90.375c0.373-0.25,3.32-2.252,3.32-2.252l-0.202-0.215l-3.267,2.288L40.408,90.375z"/><path d="M74.628,88.498c-1.379,0-2.498-1.12-2.498-2.498c0-1.376,1.119-2.497,2.498-2.497c1.377,0,2.496,1.121,2.496,2.497   C77.124,87.378,76.003,88.498,74.628,88.498 M74.628,83.612c-1.318,0-2.39,1.071-2.39,2.388c0,1.317,1.072,2.389,2.39,2.389   c1.315,0,2.387-1.072,2.387-2.389S75.943,83.612,74.628,83.612"/><path fill="none" stroke="#000000" stroke-miterlimit="10" d="M74.628,88.498c-1.379,0-2.498-1.12-2.498-2.498   c0-1.376,1.119-2.497,2.498-2.497c1.377,0,2.496,1.121,2.496,2.497C77.124,87.378,76.003,88.498,74.628,88.498z M74.628,83.612   c-1.318,0-2.39,1.071-2.39,2.388c0,1.317,1.072,2.389,2.39,2.389c1.315,0,2.387-1.072,2.387-2.389S75.943,83.612,74.628,83.612z"/><path d="M74.585,79.782c-0.008,0.428,0.026,3.278,0.026,3.278l-0.067,0.442l0.204,0.046v-3.783L74.585,79.782z"/><polyline points="72.16,85.723 68.489,85.688 68.502,85.931 72.13,86  "/><polyline points="80.927,85.723 77.104,85.688 77.117,85.931 80.895,86  "/><path d="M76.476,84.465c0.327-0.313,2.449-2.437,2.449-2.437l0.341-0.319l-0.145-0.216l-2.736,2.735L76.476,84.465z"/><polyline points="73.072,84.037 70.405,81.32 70.245,81.504 72.924,84.329  "/><path d="M74.627,95.604c-5.297,0-9.604-4.308-9.604-9.604c0-5.294,4.307-9.604,9.604-9.604c5.293,0,9.603,4.311,9.603,9.604   C84.229,91.296,79.92,95.604,74.627,95.604 M74.627,78.624c-4.068,0-7.379,3.31-7.379,7.376s3.311,7.375,7.379,7.375   C78.692,93.375,82,90.066,82,86S78.692,78.624,74.627,78.624"/><path d="M74.628,92.367c-3.513,0-6.368-2.855-6.368-6.367c0-3.513,2.855-6.367,6.368-6.367c3.511,0,6.364,2.854,6.364,6.367   C80.992,89.512,78.138,92.367,74.628,92.367 M74.628,79.911c-3.358,0-6.089,2.732-6.089,6.09s2.731,6.088,6.089,6.088   c3.355,0,6.087-2.731,6.087-6.088C80.715,82.644,77.982,79.911,74.628,79.911"/><path d="M74.585,88.438c-0.008,0.429,0.026,3.278,0.026,3.278l-0.067,0.442l0.204,0.047v-3.784L74.585,88.438z"/><path d="M79.457,89.862c-0.648-0.472,0.068,0.038-2.735-1.926l-0.36-0.271l-0.187,0.183l3.164,2.214L79.457,89.862z"/><path d="M69.991,90.375c0.375-0.25,3.321-2.252,3.321-2.252l-0.202-0.215l-3.267,2.288L69.991,90.375z"/></g><text x="0" y="115" fill="#000000" font-size="5px" font-weight="bold" font-family="'Helvetica Neue', Helvetica, Arial-Unicode, Arial, Sans-serif">Created by Anna Racaza</text><text x="0" y="120" fill="#000000" font-size="5px" font-weight="bold" font-family="'Helvetica Neue', Helvetica, Arial-Unicode, Arial, Sans-serif">from the Noun Project</text></svg>