<svg xmlns="http://www.w3.org/2000/svg" xmlns:xlink="http://www.w3.org/1999/xlink" version="1.0" x="0px" y="0px" viewBox="0 0 62 72.5" enable-background="new 0 0 62 58" xml:space="preserve"><g><path d="M0,0v58h62V0H0z M60,22H50v10h10v2H50v10h10v2v10H50V46h-2v10H38V46h-2v10H26h-2V46H14v10h-2V46H2v-2h10V34H2v-2h10V22H2   v-2V10h10v10h2V10h10h2v10h10V10h2v10h10V10h2v10h10V22z"/><rect x="14" y="34" width="10" height="10"/><rect x="26" y="34" width="10" height="10"/><rect x="14" y="22" width="10" height="10"/><rect x="38" y="34" width="10" height="10"/><rect x="26" y="22" width="10" height="10"/><rect x="38" y="22" width="10" height="10"/></g><text x="0" y="73" fill="#000000" font-size="5px" font-weight="bold" font-family="'Helvetica Neue', Helvetica, Arial-Unicode, Arial, Sans-serif">Created by Dennis Timmermann</text><text x="0" y="78" fill="#000000" font-size="5px" font-weight="bold" font-family="'Helvetica Neue', Helvetica, Arial-Unicode, Arial, Sans-serif">from the Noun Project</text></svg>