<svg xmlns="http://www.w3.org/2000/svg" xmlns:xlink="http://www.w3.org/1999/xlink" version="1.1" x="0px" y="0px" viewBox="247.6 370.9 100 125" enable-background="new 247.6 370.9 100 100" xml:space="preserve"><path d="M312.8,409.4C312.8,409.4,312.8,409.4,312.8,409.4C312.7,409.4,312.7,409.4,312.8,409.4c-2.6-1.5-5.5-2.6-8.5-3.3  c5.4-2.5,9.2-8,9.2-14.3c0-8.7-7.1-15.8-15.8-15.8s-15.8,7.1-15.8,15.8c0,6.3,3.8,11.8,9.2,14.3c-3,0.7-5.8,1.8-8.4,3.3c0,0,0,0,0,0  c0,0,0,0,0,0c-9.1,5.2-15.2,15-15.2,26.2c0,16.7,13.6,30.3,30.3,30.3s30.3-13.6,30.3-30.3C327.9,424.4,321.8,414.7,312.8,409.4z   M296.4,412.4c0,0.1-0.1,0.2-0.1,0.3v19.9l-11.4-21.6c3.1-1.6,6.5-2.6,10.1-3c-0.3,0.5-0.5,1-0.5,1.6  C294.6,410.9,295.3,412,296.4,412.4z M298.9,412.4c1-0.5,1.8-1.5,1.8-2.8c0-0.6-0.2-1.1-0.5-1.6c3.6,0.3,7.1,1.4,10.1,3L299,432.7  v-19.9C299,412.6,298.9,412.5,298.9,412.4z M284.5,391.8c0-7.3,5.9-13.2,13.2-13.2s13.2,5.9,13.2,13.2c0,7.3-5.9,13.2-13.2,13.2  S284.5,399,284.5,391.8z M316.9,455.5v-19.8c0-0.7-0.6-1.3-1.3-1.3s-1.3,0.6-1.3,1.3V457c0,0.2,0.1,0.4,0.2,0.6  c-4.7,3.6-10.5,5.7-16.8,5.7c-6.5,0-12.5-2.3-17.2-6c0-0.1,0.1-0.2,0.1-0.3v-21.4c0-0.7-0.6-1.3-1.3-1.3s-1.3,0.6-1.3,1.3V455  c-4.9-5-7.9-11.8-7.9-19.3c0-9.7,5.1-18.3,12.7-23.2l13.8,26.2c0,0.1,0.1,0.1,0.1,0.1c0,0,0,0.1,0.1,0.1c0.1,0.1,0.2,0.2,0.4,0.3  c0,0,0,0,0,0c0.1,0,0.1,0,0.2,0.1c0,0,0.1,0,0.1,0c0.1,0,0.2,0,0.3,0s0.2,0,0.3,0c0,0,0.1,0,0.1,0c0.1,0,0.1,0,0.2-0.1c0,0,0,0,0,0  c0.1-0.1,0.3-0.2,0.4-0.3c0,0,0-0.1,0.1-0.1c0,0,0.1-0.1,0.1-0.1l13.8-26.2c7.6,4.9,12.7,13.5,12.7,23.2  C325.3,443.4,322.1,450.4,316.9,455.5z"/><text x="247.6" y="485.9" fill="#000000" font-size="5px" font-weight="bold" font-family="'Helvetica Neue', Helvetica, Arial-Unicode, Arial, Sans-serif">Created by Hysen Drogu</text><text x="247.6" y="490.9" fill="#000000" font-size="5px" font-weight="bold" font-family="'Helvetica Neue', Helvetica, Arial-Unicode, Arial, Sans-serif">from the Noun Project</text></svg>