<svg xmlns="http://www.w3.org/2000/svg" xmlns:xlink="http://www.w3.org/1999/xlink" version="1.1" x="0px" y="0px" viewBox="0 0 100 125" enable-background="new 0 0 100 100" xml:space="preserve"><g><path d="M78,71.4c-4.8-7.5-6-7.8-6.7-7.9c-0.2,0-0.3-0.1-0.5-0.1c-1.4,0-3.8,1.2-8.5,3.7c-1.4,0.7-3.1,1.6-3.6,1.8   c-1.1-0.1-6.3-2.4-12.8-12.2c-6.1-9.5-6.8-16.6-6.5-18.8c0.8-0.7,3.6-2.1,5.1-2.8c3.6-1.7,4.8-2.4,5.3-3.5c0.8-2-3.8-11-5.2-13.7   c-2.9-5.4-3.9-6-4.8-6.2c-0.1,0-0.3,0-0.5,0c-2.7,0-16.7,10.2-17.2,12.5c0,0.1-0.1,0.2-0.2,0.5c-5.2,13.4-2.6,28.7,7.6,44.3   c3.3,5,8.4,12.2,15.4,16.6c4,2.5,7.9,4,12.2,4.6c0.9,0.1,1.9,0.2,2.8,0.2h0c1.3,0,2.6-0.1,3.9-0.4c5.4-0.9,10.5-3.5,15.2-6.2   c0.1,0,0.2-0.1,0.3-0.2c1-0.5,2.6-1.3,2.9-2.8C82.6,80.1,82.8,78.9,78,71.4z M77.9,80.2c-0.2,0.1-0.4,0.2-0.5,0.3   c-4.4,2.5-9.1,4.9-14,5.8c-1.1,0.2-2.3,0.3-3.3,0.3c0,0,0,0,0,0c-0.8,0-1.6-0.1-2.3-0.2c-3.8-0.5-7.3-1.8-10.8-4.1   c-6.4-4-11.2-10.8-14.3-15.5c-9.5-14.6-12-28.8-7.2-41c0.1-0.3,0.2-0.4,0.2-0.6c1.4-1.7,10.4-8.4,13.3-9.8   c1.9,2.4,6.3,11.6,7.2,14.6c-0.8,0.5-2.1,1.1-3.2,1.6c-4.9,2.4-6.7,3.4-7.1,5.1c-0.6,2.9,0,11.3,6.9,21.9   c7.1,11,13.3,13.9,15.9,13.9c0.3,0,0.5,0,0.8-0.1c0.7-0.2,2-0.8,4.5-2.1c1.8-1,5.1-2.7,6.4-3.1c1.8,1.9,7,9.9,8.1,12.6   C78.3,80,78.1,80.1,77.9,80.2z"/></g><text x="0" y="115" fill="#000000" font-size="5px" font-weight="bold" font-family="'Helvetica Neue', Helvetica, Arial-Unicode, Arial, Sans-serif">Created by Yu Luck</text><text x="0" y="120" fill="#000000" font-size="5px" font-weight="bold" font-family="'Helvetica Neue', Helvetica, Arial-Unicode, Arial, Sans-serif">from the Noun Project</text></svg>