<?xml version="1.0" encoding="UTF-8" standalone="no"?>
<svg
   xmlns:dc="http://purl.org/dc/elements/1.1/"
   xmlns:cc="http://creativecommons.org/ns#"
   xmlns:rdf="http://www.w3.org/1999/02/22-rdf-syntax-ns#"
   xmlns:svg="http://www.w3.org/2000/svg"
   xmlns="http://www.w3.org/2000/svg"
   xmlns:sodipodi="http://sodipodi.sourceforge.net/DTD/sodipodi-0.dtd"
   xmlns:inkscape="http://www.inkscape.org/namespaces/inkscape"
   xml:space="preserve"
   version="1.0"
   style="shape-rendering:geometricPrecision;text-rendering:geometricPrecision;image-rendering:optimizeQuality;"
   viewBox="0 0 100 100"
   x="0px"
   y="0px"
   fill-rule="evenodd"
   clip-rule="evenodd"
   id="svg2"
   inkscape:version="0.91 r13725"
   sodipodi:docname="noun_165036 blanc.svg"><metadata
     id="metadata16"><rdf:RDF><cc:Work
         rdf:about=""><dc:format>image/svg+xml</dc:format><dc:type
           rdf:resource="http://purl.org/dc/dcmitype/StillImage" /><dc:title></dc:title></cc:Work></rdf:RDF></metadata><sodipodi:namedview
     pagecolor="#ffffff"
     bordercolor="#666666"
     borderopacity="1"
     objecttolerance="10"
     gridtolerance="10"
     guidetolerance="10"
     inkscape:pageopacity="0"
     inkscape:pageshadow="2"
     inkscape:window-width="640"
     inkscape:window-height="480"
     id="namedview14"
     showgrid="false"
     inkscape:zoom="2.36"
     inkscape:cx="50"
     inkscape:cy="50"
     inkscape:window-x="0"
     inkscape:window-y="23"
     inkscape:window-maximized="0"
     inkscape:current-layer="svg2" /><defs
     id="defs4"><style
       type="text/css"
       id="style6">
   
    .fil0 {fill:#020202}
   
  </style></defs><g
     id="g8"
     style="fill:#ffffff;stroke:#ffffff"><g
       id="g10"
       style="fill:#ffffff;stroke:#ffffff"><path
         class="fil0"
         d="M43 72l0 0c1,-1 0,-1 1,-2 1,0 1,0 1,2l0 0c0,-2 1,-3 2,-3 1,0 1,-2 -1,-4 1,1 2,2 3,5 -1,0 -1,0 -2,0 -1,0 -2,1 -2,3 0,0 0,0 1,0 0,0 0,1 0,1l1 0c1,0 1,0 1,1 1,0 1,1 0,2 0,0 -2,0 -2,1 2,6 -6,4 -9,1 -1,-2 -2,-4 -1,-6 -2,-1 -2,-2 -3,-3 -1,-3 1,-6 4,-6 2,0 4,1 5,2 0,1 0,3 0,4 0,0 0,0 0,0 0,1 0,1 0,1l1 1zm-3 23l26 0c0,-3 0,-8 -1,-12 0,-1 -1,-3 -2,-4l-1 -3c-3,-3 -2,-5 0,-11 1,-3 2,-1 3,-3 0,-2 0,-3 1,-6 1,-1 1,-2 2,-4 1,-1 2,-3 2,-4 0,-4 1,-9 -1,-12 -2,-3 -1,0 0,-4 0,-2 0,-5 -1,-6 0,-2 0,-4 1,-6 0,0 0,0 0,-1 0,1 1,1 2,1 0,-1 -1,-3 -3,-5 0,0 0,-1 0,-1l1 1c0,0 0,0 0,0 -1,-5 -4,-9 -9,-8 -5,1 -5,-4 -14,0 -1,0 -2,1 -3,2 -3,3 -3,8 -1,12l0 0c2,1 1,5 1,7 2,0 1,0 3,0 0,1 0,0 1,1 0,1 0,0 1,1 1,1 0,0 1,1 1,1 1,1 2,1 1,0 2,-1 3,-1 1,0 2,1 1,2l-3 6c0,1 0,1 -2,2 -1,1 -1,1 -2,2 -1,1 -2,1 -3,2 -2,1 -2,4 -2,6 -4,0 -2,-2 -5,1l0 0c-1,1 -1,2 -1,3 -1,1 0,1 0,3 -1,1 -2,2 -3,3 -1,0 -1,0 -1,1 -1,1 -2,2 -3,3 -1,2 -1,4 -1,6 0,4 1,7 4,10l0 0c1,2 3,4 6,5 0,0 0,1 0,1 0,2 1,2 1,4 0,1 0,3 0,4zm5 -21c-1,0 -1,0 -1,0 1,0 1,0 1,0 0,0 0,0 0,0 0,0 0,0 0,0zm-10 -11c4,-3 11,0 14,5 3,6 2,12 -3,14 -4,3 -10,1 -13,-5 -3,-5 -2,-12 2,-14z"
         id="path12"
         style="fill:#ffffff;stroke:#ffffff" /></g></g></svg>