<?xml version="1.0" encoding="UTF-8" standalone="no"?>
<svg
   xmlns:dc="http://purl.org/dc/elements/1.1/"
   xmlns:cc="http://creativecommons.org/ns#"
   xmlns:rdf="http://www.w3.org/1999/02/22-rdf-syntax-ns#"
   xmlns:svg="http://www.w3.org/2000/svg"
   xmlns="http://www.w3.org/2000/svg"
   xmlns:sodipodi="http://sodipodi.sourceforge.net/DTD/sodipodi-0.dtd"
   xmlns:inkscape="http://www.inkscape.org/namespaces/inkscape"
   version="1.1"
   x="0px"
   y="0px"
   viewBox="0 0 100 125"
   enable-background="new 0 0 100 100"
   xml:space="preserve"
   id="svg2"
   inkscape:version="0.91 r13725"
   sodipodi:docname="noun_183822_cc blanc.svg"><metadata
     id="metadata18"><rdf:RDF><cc:Work
         rdf:about=""><dc:format>image/svg+xml</dc:format><dc:type
           rdf:resource="http://purl.org/dc/dcmitype/StillImage" /><dc:title></dc:title></cc:Work></rdf:RDF></metadata><defs
     id="defs16" /><sodipodi:namedview
     pagecolor="#ffffff"
     bordercolor="#666666"
     borderopacity="1"
     objecttolerance="10"
     gridtolerance="10"
     guidetolerance="10"
     inkscape:pageopacity="0"
     inkscape:pageshadow="2"
     inkscape:window-width="640"
     inkscape:window-height="480"
     id="namedview14"
     showgrid="false"
     inkscape:zoom="1.888"
     inkscape:cx="50"
     inkscape:cy="62.5"
     inkscape:window-x="0"
     inkscape:window-y="23"
     inkscape:window-maximized="0"
     inkscape:current-layer="svg2" /><path
     fill="#000000"
     d="M59.504,59.449c2.306,0,4.183-1.875,4.183-4.182s-1.877-4.184-4.183-4.184c-2.308,0-4.183,1.877-4.183,4.184  S57.196,59.449,59.504,59.449z M59.504,52.086c1.754,0,3.183,1.428,3.183,3.182c0,1.756-1.429,3.184-3.183,3.184  c-1.755,0-3.183-1.428-3.183-3.184C56.321,53.514,57.749,52.086,59.504,52.086z"
     id="path4"
     style="fill:#ffffff" /><path
     fill="#000000"
     d="M37.727,51.086c-2.306,0-4.182,1.875-4.182,4.182s1.876,4.184,4.182,4.184c2.307,0,4.183-1.877,4.183-4.184  C41.908,52.961,40.032,51.086,37.727,51.086z M37.727,58.449c-1.754,0-3.182-1.428-3.182-3.182s1.428-3.184,3.182-3.184  c1.755,0,3.183,1.43,3.183,3.184C40.908,57.021,39.481,58.449,37.727,58.449z"
     id="path6"
     style="fill:#ffffff" /><path
     fill="#000000"
     d="M83.598,45.403h-1.841c-0.472,0-0.918,0.096-1.341,0.239V42.22c0-15.417-11.146-31.801-31.802-31.801  c-17.534,0-31.801,14.266-31.801,31.801v6.039c-1.185,1.42-1.841,3.188-1.841,5.008c0,3.486,2.284,6.529,5.599,7.523  c1.025,14.674,13.275,26.117,28.043,26.117c7.94,0,15.522-3.367,20.844-9.236c9.139-0.312,16.48-7.824,16.48-17.041v-0.217  c1.11-0.754,1.842-2.023,1.842-3.465v-7.364C87.78,47.28,85.903,45.403,83.598,45.403z M17.815,47.11v-4.89  c0-16.982,13.816-30.8,30.801-30.8c20.006,0,30.801,15.869,30.801,30.8v3.901c-0.146,0.099-0.273,0.219-0.405,0.334  c-0.001,0.001-0.002,0.001-0.002,0.002c-0.128,0.112-0.247,0.229-0.36,0.355c-0.004,0.006-0.009,0.012-0.014,0.018  c-0.187,0.211-0.349,0.438-0.49,0.685c-0.046,0.078-0.089,0.157-0.13,0.238c-0.051,0.105-0.104,0.208-0.146,0.318  c-0.075,0.189-0.135,0.385-0.182,0.584c-0.017,0.068-0.027,0.136-0.039,0.205c-0.043,0.238-0.073,0.479-0.073,0.725v0.127  l-0.843,0.674v-4.698l-0.156-0.148c-0.012-0.01-0.123-0.117-0.319-0.306c-1.503-1.447-7.925-7.744-11.268-12.859  c-0.278-0.425-0.533-0.842-0.765-1.247c-0.011-0.019-0.022-0.038-0.033-0.057c-0.06-0.104-0.111-0.206-0.166-0.31  c-0.058-0.105-0.117-0.212-0.17-0.314c-0.313-0.614-0.558-1.194-0.713-1.727l-0.422-1.444l-0.527,1.409  c-4.558,12.187-40.89,16.679-41.256,16.723l-0.439,0.053v4.928l-2.684-2.146V47.11L17.815,47.11z M81.235,61.08  c-0.178,5.164-3.364,9.424-7.912,11.129c2.226-4.1,3.408-8.709,3.408-13.418v-7.125l0.842-0.673v5.957  C77.573,59.078,79.177,60.82,81.235,61.08z M48.614,85.908c-14.357,0-26.247-11.215-27.067-25.533l-0.021-0.367l-0.357-0.09  c-3.059-0.766-5.195-3.5-5.195-6.65c0-1.475,0.491-2.914,1.395-4.104l4.13,3.305v-6.124c4.266-0.548,35.049-4.873,41.119-16.179  c2.546,5.765,11.737,14.642,13.116,15.952v6.348v6.324c0,4.889-1.307,9.666-3.778,13.836c-0.502,0.127-1.004,0.223-1.506,0.287  c-0.021,0.002-0.042,0.008-0.062,0.01c-0.509,0.064-1.016,0.098-1.517,0.098H52.079c-0.753-1.109-2.024-1.84-3.463-1.84  c-2.308,0-4.184,1.875-4.184,4.182s1.876,4.182,4.184,4.182c1.438,0,2.71-0.73,3.463-1.84h15.986  C62.977,82.932,55.953,85.908,48.614,85.908z M51.797,75.361c0,0.262-0.039,0.52-0.106,0.771c-0.008,0.033-0.021,0.066-0.029,0.1  c-0.073,0.244-0.172,0.486-0.307,0.719l-0.129,0.223c-0.576,0.826-1.529,1.369-2.609,1.369c-1.756,0-3.184-1.428-3.184-3.182  s1.428-3.182,3.184-3.182c1.08,0,2.035,0.545,2.609,1.369l0.128,0.223c0.136,0.232,0.233,0.477,0.308,0.721  c0.01,0.033,0.021,0.062,0.029,0.096C51.758,74.842,51.797,75.1,51.797,75.361z M68.869,76.703H52.567  c0.023-0.07,0.034-0.143,0.056-0.213c0.035-0.127,0.073-0.248,0.099-0.379c0.047-0.246,0.075-0.496,0.075-0.75  s-0.028-0.502-0.075-0.75c-0.023-0.129-0.062-0.25-0.099-0.375c-0.021-0.072-0.03-0.146-0.056-0.217h16.302  c0.364,0,0.732-0.021,1.102-0.053c0.192-0.016,0.384-0.035,0.573-0.059c0.086-0.012,0.172-0.025,0.259-0.037  c6.396-0.891,11.214-6.127,11.445-12.74h1.35c0.253,0,0.501-0.027,0.747-0.074c0.139-0.025,0.27-0.066,0.401-0.105  c0.062-0.018,0.129-0.027,0.19-0.049C84.793,69.641,77.641,76.703,68.869,76.703z M86.78,56.949c0,1.072-0.537,2.02-1.353,2.596  l-0.241,0.143c-0.238,0.139-0.483,0.24-0.732,0.312c-0.026,0.008-0.051,0.02-0.077,0.025c-0.256,0.068-0.517,0.105-0.779,0.105  h-1.841c-1.755,0-3.183-1.428-3.183-3.182v-6.757v-0.607c0-0.187,0.023-0.366,0.055-0.544c0.012-0.064,0.024-0.128,0.04-0.191  c0.025-0.108,0.062-0.213,0.099-0.318c0.058-0.156,0.123-0.307,0.203-0.453c0.017-0.028,0.03-0.057,0.047-0.085  c0.274-0.464,0.667-0.862,1.15-1.146l0.106-0.062c0.444-0.237,0.943-0.383,1.481-0.383h1.841c1.756,0,3.184,1.428,3.184,3.183  V56.949z"
     id="path8"
     style="fill:#ffffff" /><text
     x="0"
     y="115"
     fill="#000000"
     font-size="5px"
     font-weight="bold"
     font-family="'Helvetica Neue', Helvetica, Arial-Unicode, Arial, Sans-serif"
     id="text10"
     style="fill:#ffffff;">Created by Renan Ferreira Santos</text>
<text
     x="0"
     y="120"
     fill="#000000"
     font-size="5px"
     font-weight="bold"
     font-family="'Helvetica Neue', Helvetica, Arial-Unicode, Arial, Sans-serif"
     id="text12"
     style="fill:#ffffff;">from the Noun Project</text>
</svg>