<?xml version="1.0" encoding="UTF-8" standalone="no"?>
<svg
   xmlns:dc="http://purl.org/dc/elements/1.1/"
   xmlns:cc="http://creativecommons.org/ns#"
   xmlns:rdf="http://www.w3.org/1999/02/22-rdf-syntax-ns#"
   xmlns:svg="http://www.w3.org/2000/svg"
   xmlns="http://www.w3.org/2000/svg"
   xmlns:sodipodi="http://sodipodi.sourceforge.net/DTD/sodipodi-0.dtd"
   xmlns:inkscape="http://www.inkscape.org/namespaces/inkscape"
   version="1.1"
   x="0px"
   y="0px"
   viewBox="0 0 100 125"
   enable-background="new 0 0 100 100"
   xml:space="preserve"
   id="svg2"
   inkscape:version="0.91 r13725"
   sodipodi:docname="noun_20505_cc.svg"><metadata
     id="metadata16"><rdf:RDF><cc:Work
         rdf:about=""><dc:format>image/svg+xml</dc:format><dc:type
           rdf:resource="http://purl.org/dc/dcmitype/StillImage" /></cc:Work></rdf:RDF></metadata><defs
     id="defs14" /><sodipodi:namedview
     pagecolor="#ffffff"
     bordercolor="#666666"
     borderopacity="1"
     objecttolerance="10"
     gridtolerance="10"
     guidetolerance="10"
     inkscape:pageopacity="0"
     inkscape:pageshadow="2"
     inkscape:window-width="640"
     inkscape:window-height="480"
     id="namedview12"
     showgrid="false"
     inkscape:zoom="1.888"
     inkscape:cx="50"
     inkscape:cy="62.5"
     inkscape:window-x="0"
     inkscape:window-y="0"
     inkscape:window-maximized="0"
     inkscape:current-layer="svg2" /><path
     d="M89.177,39.458l-0.088,0.105l-0.091,0.102c-0.027,0.032-0.054,0.061-0.081,0.089l-7.963,9.519v27.074  c0,2.545-2.062,4.607-4.607,4.607h-52.36c-2.544,0-4.606-2.062-4.606-4.607v-52.36c0-2.544,2.062-4.606,4.606-4.606h43.38  l7.709-9.213H23.986c-7.62,0-13.82,6.2-13.82,13.82v52.36c0,7.62,6.2,13.819,13.82,13.819h52.36c7.62,0,13.819-6.199,13.819-13.819  V38.274L89.177,39.458z"
     id="path4"
     style="fill:#d40055" /><path
     d="M88.116,17.569c-2.371-1.979-5.897-1.661-7.877,0.712L49.873,54.667L36.6,39.564c-2.039-2.322-5.572-2.55-7.894-0.51  c-2.321,2.038-2.548,5.573-0.509,7.893L42.622,63.36l-0.002,0.002l7.467,8.498L81.987,33.62c0.034-0.041,0.074-0.08,0.109-0.121  l6.733-8.053C90.81,23.075,90.49,19.548,88.116,17.569z"
     id="path6"
     style="fill:#d40055" /><text
     x="0"
     y="115"
     fill="#000000"
     font-size="5px"
     font-weight="bold"
     font-family="'Helvetica Neue', Helvetica, Arial-Unicode, Arial, Sans-serif"
     id="text8">Created by Javier Sánchez - javyliu</text>
<text
     x="0"
     y="120"
     fill="#000000"
     font-size="5px"
     font-weight="bold"
     font-family="'Helvetica Neue', Helvetica, Arial-Unicode, Arial, Sans-serif"
     id="text10">from the Noun Project</text>
</svg>