<?xml version="1.0" encoding="UTF-8" standalone="no"?>
<svg
   xmlns:dc="http://purl.org/dc/elements/1.1/"
   xmlns:cc="http://creativecommons.org/ns#"
   xmlns:rdf="http://www.w3.org/1999/02/22-rdf-syntax-ns#"
   xmlns:svg="http://www.w3.org/2000/svg"
   xmlns="http://www.w3.org/2000/svg"
   xmlns:sodipodi="http://sodipodi.sourceforge.net/DTD/sodipodi-0.dtd"
   xmlns:inkscape="http://www.inkscape.org/namespaces/inkscape"
   version="1.1"
   x="0px"
   y="0px"
   viewBox="0 0 100 125"
   style="enable-background:new 0 0 100 100;"
   xml:space="preserve"
   id="svg2"
   inkscape:version="0.91 r13725"
   sodipodi:docname="noun_204188_cc GRIS VISIO.svg"><metadata
     id="metadata26"><rdf:RDF><cc:Work
         rdf:about=""><dc:format>image/svg+xml</dc:format><dc:type
           rdf:resource="http://purl.org/dc/dcmitype/StillImage" /><dc:title></dc:title></cc:Work></rdf:RDF></metadata><defs
     id="defs24" /><sodipodi:namedview
     pagecolor="#ffffff"
     bordercolor="#666666"
     borderopacity="1"
     objecttolerance="10"
     gridtolerance="10"
     guidetolerance="10"
     inkscape:pageopacity="0"
     inkscape:pageshadow="2"
     inkscape:window-width="710"
     inkscape:window-height="480"
     id="namedview22"
     showgrid="false"
     inkscape:zoom="1.888"
     inkscape:cx="50"
     inkscape:cy="62.5"
     inkscape:window-x="244"
     inkscape:window-y="68"
     inkscape:window-maximized="0"
     inkscape:current-layer="svg2" /><circle
     cx="14"
     cy="27.6"
     r="2"
     id="circle4"
     style="fill:#d3d3d3" /><circle
     cx="20"
     cy="27.6"
     r="2"
     id="circle6"
     style="fill:#d3d3d3" /><circle
     cx="26"
     cy="27.6"
     r="2"
     id="circle8"
     style="fill:#d3d3d3" /><g
     id="g10"
     style="fill:#d3d3d3"><path
       d="M77.8,56.5c2.6,0,4.7,2.1,4.7,4.7s-2.1,4.7-4.7,4.7s-4.6-2.1-4.6-4.7C73.2,58.5,75.3,56.5,77.8,56.5z"
       id="path12"
       style="fill:#d3d3d3" /></g><g
     id="g14"
     style="fill:#c0c0c0"><path
       d="M5,18.6v57.7h90V18.6H5z M18.5,72.2c0.2-5.5,2.9-10.8,6.9-14.6c0.9-0.9,2.4-1,3.4-0.3c2.1,1.4,4.6,2.2,7.4,2.2   c2.7,0,5.3-0.9,7.4-2.2c1-0.7,2.6-0.5,3.4,0.3c3.8,3.8,6.5,9.3,6.7,14.6H18.5z M25.8,46.3c0-6,4.6-10.6,10.5-10.6   c5.8,0,10.6,4.8,10.6,10.6S42,56.9,36.2,56.9S25.8,52.1,25.8,46.3z M54.8,54.3V43.5c0-0.3,0.2-0.5,0.5-0.5h19.4   c0.3,0,0.5,0.2,0.5,0.5l0.1,10.8c0,0.2-0.2,0.5-0.5,0.5h-3.5v4.3l-3.8-4.3H55.3C55,54.8,54.8,54.5,54.8,54.3z M91,72.3   c0,0-2.2,0-5.6,0c-0.1-2.2-1.2-4.5-2.9-6.2c-0.4-0.4-1-0.5-1.5-0.2c-0.9,0.6-2,1-3.2,1s-2.3-0.4-3.2-1c-0.4-0.3-1.1-0.2-1.5,0.2   c-1.6,1.7-2.8,3.9-3,6.2h-5.6V55.8H67l5.2,5.9v-5.9h2.5c0.8,0,1.5-0.7,1.5-1.5v-2.5H91V72.3z M91,32.6H9v-10h82V32.6z"
       id="path16"
       style="fill:#c0c0c0" /></g><text
     x="0"
     y="115"
     fill="#000000"
     font-size="5px"
     font-weight="bold"
     font-family="'Helvetica Neue', Helvetica, Arial-Unicode, Arial, Sans-serif"
     id="text18">Created by Matt Saling</text>
<text
     x="0"
     y="120"
     fill="#000000"
     font-size="5px"
     font-weight="bold"
     font-family="'Helvetica Neue', Helvetica, Arial-Unicode, Arial, Sans-serif"
     id="text20">from the Noun Project</text>
</svg>