<svg xmlns="http://www.w3.org/2000/svg" xmlns:xlink="http://www.w3.org/1999/xlink" version="1.1" x="0px" y="0px" viewBox="0 0 100 125" enable-background="new 0 0 100 100" xml:space="preserve"><path d="M89.2,31.8H68.2c-2.6,0-5-1.7-5.8-4.2l-6.5-20c-0.9-2.8-3.4-4.2-5.8-4.2s-4.9,1.4-5.8,4.2l-6.5,20c-0.8,2.5-3.2,4.2-5.8,4.2  H10.8c-5.9,0-8.4,7.6-3.6,11.1l17,12.4c2.1,1.6,3,4.3,2.2,6.9l-6.5,20c-1.4,4.3,2,8,5.9,8c1.2,0,2.4-0.4,3.6-1.2l17-12.4  c1.1-0.8,2.3-1.2,3.6-1.2s2.5,0.4,3.6,1.2l17,12.4c1.2,0.8,2.4,1.2,3.6,1.2c3.8,0,7.2-3.8,5.9-8l-6.5-20c-0.8-2.5,0.1-5.3,2.2-6.9  l17-12.4C97.6,39.5,95.2,31.8,89.2,31.8z M90.5,39.7l-17,12.4c-3.6,2.6-5,7.1-3.7,11.3l6.5,20c0.2,0.7,0.1,1.3-0.3,1.9  c-0.4,0.6-1.1,1-1.8,1c-0.4,0-0.8-0.1-1.2-0.4L56,73.4c-1.7-1.3-3.8-1.9-6-1.9s-4.2,0.7-6,1.9L27,85.8c-0.4,0.3-0.8,0.4-1.2,0.4  c-0.7,0-1.4-0.4-1.8-1c-0.4-0.5-0.5-1.2-0.3-1.9l6.5-20c1.4-4.2-0.1-8.7-3.7-11.3l-17-12.4c-1.1-0.8-0.9-1.9-0.8-2.4  c0.1-0.4,0.6-1.5,2-1.5h21.1c4.4,0,8.3-2.8,9.6-7l6.5-20c0.4-1.3,1.6-1.5,2-1.5s1.6,0.1,2,1.5l6.5,20c1.4,4.2,5.2,7,9.6,7h21.1  c1.4,0,1.9,1,2,1.5C91.4,37.8,91.6,38.9,90.5,39.7z"/><text x="0" y="115" fill="#000000" font-size="5px" font-weight="bold" font-family="'Helvetica Neue', Helvetica, Arial-Unicode, Arial, Sans-serif">Created by Cengiz SARI</text><text x="0" y="120" fill="#000000" font-size="5px" font-weight="bold" font-family="'Helvetica Neue', Helvetica, Arial-Unicode, Arial, Sans-serif">from the Noun Project</text></svg>