<?xml version="1.0" encoding="UTF-8" standalone="no"?>
<svg
   xmlns:dc="http://purl.org/dc/elements/1.1/"
   xmlns:cc="http://creativecommons.org/ns#"
   xmlns:rdf="http://www.w3.org/1999/02/22-rdf-syntax-ns#"
   xmlns:svg="http://www.w3.org/2000/svg"
   xmlns="http://www.w3.org/2000/svg"
   xmlns:sodipodi="http://sodipodi.sourceforge.net/DTD/sodipodi-0.dtd"
   xmlns:inkscape="http://www.inkscape.org/namespaces/inkscape"
   version="1.1"
   x="0px"
   y="0px"
   viewBox="-909 491 100 125"
   style="enable-background:new -909 491 100 100;"
   xml:space="preserve"
   id="svg2"
   inkscape:version="0.91 r13725"
   sodipodi:docname="noun_201735_cc click blanc.svg"><metadata
     id="metadata14"><rdf:RDF><cc:Work
         rdf:about=""><dc:format>image/svg+xml</dc:format><dc:type
           rdf:resource="http://purl.org/dc/dcmitype/StillImage" /><dc:title></dc:title></cc:Work></rdf:RDF></metadata><defs
     id="defs12" /><sodipodi:namedview
     pagecolor="#ffffff"
     bordercolor="#666666"
     borderopacity="1"
     objecttolerance="10"
     gridtolerance="10"
     guidetolerance="10"
     inkscape:pageopacity="0"
     inkscape:pageshadow="2"
     inkscape:window-width="710"
     inkscape:window-height="480"
     id="namedview10"
     showgrid="false"
     inkscape:zoom="1.888"
     inkscape:cx="50"
     inkscape:cy="62.5"
     inkscape:window-x="0"
     inkscape:window-y="23"
     inkscape:window-maximized="0"
     inkscape:current-layer="svg2" /><path
     d="M-821,554.8v-22.6c0,0,0-6.2-5.1-6.2c-5.3,0-5.1,5.8-5.1,5.8v1.6c-0.2,0.6-0.6,1-1.1,0.8c-1.2-0.4-1.2-1.6-1.2-1.6v-6.3  c0,0,0-6.2-5.1-6.2c-5.3,0-5.1,5.8-5.1,5.8v3.8c0,0-0.1,2.1-1.1,2.1c-1.1,0-0.9-1.9-0.9-1.9v-8.3c0,0,0-6.4-5.7-6.4  c-6,0-5.8,6.6-5.8,6.6v9.9c0,0,0.1,1.4-1.3,1.4c-1.1,0-1-1.1-1-1.1v-26.4c0-8-6.2-7.1-6.2-7.1c-6.8,0-6.4,7.7-6.4,7.7v45.8  c-16.8-27.4-24.7-10.2-24.7-10.2c4.8,0.4,20.1,23.3,20.1,23.3c7.8,18.7,24,18.7,24,18.7C-819,583.7-821,554.8-821,554.8z"
     id="path4"
     style="fill:#ffffff" /><text
     x="-909"
     y="606"
     fill="#000000"
     font-size="5px"
     font-weight="bold"
     font-family="'Helvetica Neue', Helvetica, Arial-Unicode, Arial, Sans-serif"
     id="text6"
     style="fill:#ffffff;">Created by Ryan Dell</text>
<text
     x="-909"
     y="611"
     fill="#000000"
     font-size="5px"
     font-weight="bold"
     font-family="'Helvetica Neue', Helvetica, Arial-Unicode, Arial, Sans-serif"
     id="text8"
     style="fill:#ffffff;">from the Noun Project</text>
</svg>