<svg xmlns="http://www.w3.org/2000/svg" xmlns:xlink="http://www.w3.org/1999/xlink" version="1.1" x="0px" y="0px" viewBox="0 0 100 125" enable-background="new 0 0 100 100" xml:space="preserve"><g><path d="M72.655,48.285h-8.934c-0.553,0-1-0.448-1-1V36.989c0-7.193-5.852-13.045-13.045-13.045   c-7.193,0-13.045,5.852-13.045,13.045v10.296c0,0.552-0.448,1-1,1h-8.933c-0.552,0-1-0.448-1-1V36.989   c0-13.222,10.756-23.979,23.978-23.979s23.979,10.757,23.979,23.979v10.296C73.655,47.837,73.208,48.285,72.655,48.285z    M64.722,46.285h6.934v-9.296c0-12.119-9.859-21.979-21.979-21.979c-12.119,0-21.978,9.859-21.978,21.979v9.296h6.933v-9.296   c0-8.296,6.749-15.045,15.045-15.045s15.045,6.75,15.045,15.045V46.285z"/><path d="M54.239,77.681h-9.125c-0.289,0-0.564-0.125-0.754-0.344c-0.19-0.218-0.276-0.508-0.236-0.794l1.266-9.08   c-1.529-1.271-2.426-3.156-2.426-5.159c0-3.701,3.011-6.712,6.712-6.712c3.7,0,6.71,3.011,6.71,6.712   c0,2.003-0.895,3.889-2.421,5.158l1.264,9.081c0.04,0.286-0.046,0.576-0.236,0.794C54.804,77.556,54.528,77.681,54.239,77.681z    M46.263,75.681h6.828l-1.187-8.523c-0.053-0.376,0.112-0.749,0.426-0.963c1.288-0.881,2.057-2.335,2.057-3.891   c0-2.599-2.113-4.712-4.71-4.712c-2.599,0-4.712,2.113-4.712,4.712c0,1.555,0.771,3.009,2.061,3.89   c0.313,0.215,0.479,0.588,0.426,0.964L46.263,75.681z"/><path d="M76.645,86.989H22.709c-0.98,0-1.777-0.797-1.777-1.776V48.06c0-0.979,0.797-1.774,1.777-1.774h53.936   c0.98,0,1.777,0.796,1.777,1.774v37.153C78.422,86.192,77.625,86.989,76.645,86.989z M22.932,84.989h53.49V48.285h-53.49V84.989z"/></g><text x="0" y="115" fill="#000000" font-size="5px" font-weight="bold" font-family="'Helvetica Neue', Helvetica, Arial-Unicode, Arial, Sans-serif">Created by Nicky Knicky</text><text x="0" y="120" fill="#000000" font-size="5px" font-weight="bold" font-family="'Helvetica Neue', Helvetica, Arial-Unicode, Arial, Sans-serif">from the Noun Project</text></svg>