<svg xmlns="http://www.w3.org/2000/svg" xmlns:xlink="http://www.w3.org/1999/xlink" version="1.1" x="0px" y="0px" viewBox="0 0 100 125" enable-background="new 0 0 100 100" xml:space="preserve"><path d="M95.737,35.876c0-0.001,0-0.003,0-0.004c0-0.005-0.001-0.01-0.002-0.015c-0.001-0.024-0.003-0.048-0.006-0.071  c-0.002-0.01-0.004-0.02-0.006-0.029c-0.004-0.021-0.01-0.041-0.016-0.062c-0.003-0.009-0.005-0.017-0.008-0.025  c-0.01-0.028-0.021-0.055-0.034-0.08c-0.002-0.003-0.004-0.006-0.006-0.008c-0.012-0.023-0.026-0.044-0.041-0.066  c-0.005-0.008-0.012-0.015-0.017-0.022c-0.013-0.016-0.026-0.031-0.04-0.046c-0.008-0.007-0.014-0.015-0.022-0.022  c-0.015-0.015-0.031-0.028-0.049-0.042c-0.006-0.005-0.012-0.01-0.019-0.015c-0.001-0.001-0.003-0.002-0.004-0.002  c-0.022-0.017-0.047-0.031-0.071-0.043c-0.006-0.003-0.012-0.005-0.019-0.008c-0.021-0.011-0.044-0.02-0.066-0.027  c-0.003-0.001-0.007-0.004-0.012-0.005L60.807,24.075c-0.122-0.04-0.254-0.041-0.376-0.004L4.712,40.82  c-0.006,0.001-0.011,0.004-0.017,0.007c-0.019,0.006-0.037,0.013-0.055,0.021c-0.01,0.005-0.021,0.009-0.03,0.014  c-0.019,0.009-0.036,0.02-0.053,0.03c-0.008,0.006-0.017,0.01-0.024,0.015c-0.001,0.001-0.003,0.002-0.005,0.003  c-0.022,0.016-0.044,0.034-0.064,0.052c-0.002,0.003-0.004,0.005-0.006,0.007c-0.02,0.018-0.038,0.038-0.054,0.058  c-0.006,0.007-0.011,0.016-0.016,0.023c-0.012,0.017-0.024,0.033-0.034,0.051c-0.005,0.009-0.01,0.019-0.016,0.028  c-0.008,0.017-0.017,0.034-0.024,0.051c-0.004,0.01-0.008,0.021-0.012,0.031c-0.007,0.019-0.012,0.039-0.017,0.058  c-0.003,0.01-0.005,0.019-0.007,0.028c-0.006,0.029-0.01,0.059-0.012,0.089v0l0,0c-0.001,0.027-0.001,0.055,0,0.083l1.285,17.453  c0.017,0.221,0.148,0.418,0.346,0.518l32.748,16.446c0.002,0.001,0.003,0.001,0.005,0.002c0.039,0.02,0.08,0.034,0.121,0.045  c0.01,0.002,0.019,0.003,0.028,0.006c0.042,0.009,0.085,0.015,0.128,0.015c0.037,0,0.072-0.005,0.108-0.011  c0.01-0.002,0.02-0.004,0.03-0.006c0.029-0.007,0.059-0.016,0.087-0.027c0.005-0.001,0.01-0.001,0.015-0.003l56.18-23.143  c0.236-0.097,0.391-0.327,0.391-0.584v-16.3C95.737,35.88,95.737,35.878,95.737,35.876z M5.6,42.417l32.695,14.11v17.773  L6.782,58.475L5.6,42.417z M39.558,74.382V56.557l54.917-19.776v14.98L39.558,74.382z"/><text x="0" y="115" fill="#000000" font-size="5px" font-weight="bold" font-family="'Helvetica Neue', Helvetica, Arial-Unicode, Arial, Sans-serif">Created by Blaise Sewell</text><text x="0" y="120" fill="#000000" font-size="5px" font-weight="bold" font-family="'Helvetica Neue', Helvetica, Arial-Unicode, Arial, Sans-serif">from the Noun Project</text></svg>