<svg xmlns:dc="http://purl.org/dc/elements/1.1/" xmlns:cc="http://creativecommons.org/ns#" xmlns:rdf="http://www.w3.org/1999/02/22-rdf-syntax-ns#" xmlns:svg="http://www.w3.org/2000/svg" xmlns="http://www.w3.org/2000/svg" xmlns:sodipodi="http://sodipodi.sourceforge.net/DTD/sodipodi-0.dtd" xmlns:inkscape="http://www.inkscape.org/namespaces/inkscape" viewBox="0 0 32 40.00000125" version="1.1" x="0px" y="0px"><g transform="translate(0,-1020.3622)"><path style="color:#000000;font-style:normal;font-variant:normal;font-weight:normal;font-stretch:normal;font-size:medium;line-height:normal;font-family:sans-serif;text-indent:0;text-align:start;text-decoration:none;text-decoration-line:none;text-decoration-style:solid;text-decoration-color:#000000;letter-spacing:normal;word-spacing:normal;text-transform:none;direction:ltr;block-progression:tb;writing-mode:lr-tb;baseline-shift:baseline;text-anchor:start;white-space:normal;clip-rule:nonzero;display:inline;overflow:visible;visibility:visible;opacity:1;isolation:auto;mix-blend-mode:normal;color-interpolation:sRGB;color-interpolation-filters:linearRGB;solid-color:#000000;solid-opacity:1;fill:#000000;fill-opacity:1;fill-rule:nonzero;stroke:none;stroke-width:1;stroke-linecap:round;stroke-linejoin:round;stroke-miterlimit:4;stroke-dasharray:none;stroke-dashoffset:1.29999995;stroke-opacity:1;color-rendering:auto;image-rendering:auto;shape-rendering:auto;text-rendering:auto;enable-background:accumulate" d="M 16.599609 10 L 11.636719 10.011719 L 7.5 10.011719 L 7.5 10.021484 A 0.50005006 0.50005006 0 0 0 7.2597656 10.082031 A 0.50005 0.50005 0 0 0 7.2167969 10.109375 A 0.50005006 0.50005006 0 0 0 7.1777344 10.138672 A 0.50005 0.50005 0 0 0 7.1425781 10.173828 A 0.50005 0.50005 0 0 0 7.0800781 10.251953 A 0.50005006 0.50005006 0 0 0 7.0546875 10.294922 A 0.50005 0.50005 0 0 0 7.0078125 10.4375 A 0.50005006 0.50005006 0 0 0 7.0019531 10.486328 A 0.50005 0.50005 0 0 0 7 10.521484 L 7 21.910156 A 0.50005 0.50005 0 0 0 7.5 22.410156 L 21.232422 22.410156 C 21.979479 23.034083 22.784511 23.57951 23.449219 24.107422 A 0.50005 0.50005 0 0 0 24.078125 24.095703 C 24.95709 23.367103 25.991879 22.575053 26.841797 21.689453 C 27.691714 20.803953 28.384789 19.803912 28.453125 18.632812 A 0.50005 0.50005 0 0 0 28.455078 18.605469 C 28.455078 17.250386 27.480872 16.110771 26.191406 15.857422 L 26.191406 10.585938 A 0.50005006 0.50005006 0 0 0 25.873047 10.044922 A 0.50005006 0.50005006 0 0 0 25.824219 10.029297 A 0.50005006 0.50005006 0 0 0 25.726562 10.011719 A 0.50005 0.50005 0 0 0 25.699219 10.011719 L 25.691406 10.011719 L 16.599609 10 z M 9.2441406 11.021484 L 23.941406 11.021484 L 16.599609 15.615234 L 9.2441406 11.021484 z M 25.191406 11.417969 L 25.191406 15.855469 C 24.638366 15.96556 24.157718 16.257951 23.759766 16.636719 C 23.25461 16.153919 22.620452 15.802734 21.867188 15.802734 L 21.867188 15.804688 C 21.286951 15.804688 20.74482 15.982282 20.294922 16.285156 C 20.145244 16.385717 20.006496 16.500529 19.878906 16.626953 C 19.366756 17.134426 19.047408 17.835632 19.046875 18.607422 C 19.045574 18.750696 19.057918 18.888458 19.072266 19.025391 C 19.170095 19.959095 19.620454 20.740136 20.203125 21.410156 L 8 21.410156 L 8 11.421875 L 16.335938 16.628906 A 0.50005006 0.50005006 0 0 0 16.865234 16.628906 L 25.191406 11.417969 z M 21.867188 16.800781 L 21.867188 16.806641 C 22.487837 16.806641 23.022661 17.109172 23.351562 17.576172 A 0.50005 0.50005 0 0 0 24.167969 17.576172 C 24.497347 17.112572 25.037875 16.804688 25.652344 16.804688 C 26.656596 16.804688 27.441762 17.600603 27.449219 18.595703 C 27.396739 19.391003 26.887978 20.200853 26.119141 21.001953 C 25.432756 21.717153 24.557802 22.398706 23.742188 23.066406 C 23.078682 22.561007 22.371358 22.065304 21.755859 21.541016 A 0.50005 0.50005 0 0 0 21.744141 21.53125 C 21.74123 21.528754 21.739234 21.525934 21.736328 21.523438 C 21.524782 21.341644 21.333517 21.157546 21.152344 20.970703 C 21.096006 20.912282 21.04106 20.853975 20.988281 20.794922 C 20.85371 20.645035 20.736349 20.490714 20.626953 20.333984 C 20.56568 20.245934 20.499515 20.159015 20.447266 20.068359 C 20.419055 20.019603 20.392663 19.969567 20.367188 19.919922 C 20.27841 19.746101 20.20451 19.567431 20.152344 19.380859 C 20.140415 19.338628 20.132951 19.294926 20.123047 19.251953 C 20.076519 19.047857 20.044757 18.838919 20.046875 18.615234 A 0.50005 0.50005 0 0 0 20.046875 18.613281 A 0.50005 0.50005 0 0 0 20.046875 18.605469 C 20.046875 18.604143 20.046872 18.602888 20.046875 18.601562 C 20.046875 18.478227 20.060329 18.358493 20.083984 18.242188 C 20.084238 18.240956 20.083729 18.239512 20.083984 18.238281 C 20.108011 18.121433 20.143891 18.009708 20.189453 17.902344 C 20.189678 17.901815 20.189228 17.900919 20.189453 17.900391 C 20.23514 17.793043 20.292558 17.691185 20.357422 17.595703 C 20.357705 17.595286 20.357138 17.594167 20.357422 17.59375 C 20.422411 17.498279 20.496313 17.409341 20.578125 17.328125 C 20.74261 17.16485 20.938305 17.032706 21.15625 16.941406 C 21.374195 16.850106 21.614972 16.800781 21.867188 16.800781 z " transform="translate(0,1020.3622)"/></g><text x="0" y="47.000001" fill="#000000" font-size="5px" font-weight="bold" font-family="'Helvetica Neue', Helvetica, Arial-Unicode, Arial, Sans-serif">Created by Chameleon Design</text><text x="0" y="52.000001" fill="#000000" font-size="5px" font-weight="bold" font-family="'Helvetica Neue', Helvetica, Arial-Unicode, Arial, Sans-serif">from the Noun Project</text></svg>