<svg xmlns:dc="http://purl.org/dc/elements/1.1/" xmlns:cc="http://creativecommons.org/ns#" xmlns:rdf="http://www.w3.org/1999/02/22-rdf-syntax-ns#" xmlns:svg="http://www.w3.org/2000/svg" xmlns="http://www.w3.org/2000/svg" version="1.1" viewBox="0 0 100.00001 125" xml:space="preserve" x="0px" y="0px"><path d="m 50,5 c -4.150961,0 -7.5,3.3801015 -7.5,7.53125 0,4.150962 3.349039,7.5 7.5,7.5 4.150962,0 7.5,-3.349038 7.5,-7.5 C 57.5,8.3801015 54.150962,5 50,5 z m -0.25,15.96875 c -2.909124,0.01312 -4.74638,0.158976 -7.46875,1.3125 -1.719411,0.728266 -3.989725,3.0726 -5.1875,7.25 L 31.25,49.875 l 0,0.03125 c -0.303568,1.05171 -0.18226,2.015859 0.28125,2.78125 0.465197,0.769141 1.232043,1.326556 2.15625,1.59375 1.741162,0.50476 3.568299,-0.303593 4.21875,-1.84375 0,0 -2.108415,8.856533 -3.1875,13.28125 -0.01313,0.05569 0,0.147436 0,0.25 0,0.480198 0.48005,0.913312 1.09375,0.9375 2.022042,0.08025 4.052271,0 6.0625,0 l 0,24 C 41.875,93.154422 43.715891,95 45.96875,95 47.99923,95 49.688369,93.509166 50,91.5625 50.312007,93.509166 52.001333,95 54.03125,95 56.28486,95 58.125,93.154422 58.125,90.90625 l 0,-24 c 2.010042,0 4.04027,0.08025 6.0625,0 0.613701,-0.02419 1.09375,-0.457302 1.09375,-0.9375 0,-0.102564 0.01125,-0.194311 0,-0.25 -1.079085,-4.424717 -3.1875,-13.28125 -3.1875,-13.28125 0.650264,1.540157 2.477589,2.34851 4.21875,1.84375 0.923832,-0.267006 1.691803,-0.824609 2.15625,-1.59375 0.463697,-0.765391 0.584819,-1.729353 0.28125,-2.78125 l 0,-0.03125 -5.84375,-20.34375 c -1.197775,-4.1774 -3.468276,-6.521734 -5.1875,-7.25 C 54.607123,20.962535 52.659124,20.9545 49.75,20.96875 z M 50,46.53125 c 4.693973,0 8.5,3.806027 8.5,8.5 0,4.69416 -3.806027,8.5 -8.5,8.5 -4.694161,0 -8.5,-3.80584 -8.5,-8.5 0,-4.693973 3.805839,-8.5 8.5,-8.5 z m -2.875,3.53125 c -1.959041,0 -3.3125,1.662274 -3.3125,3.5 0,1.859851 1.690221,5.422756 6.09375,8.09375 0.06319,0.03844 0.133311,0.03281 0.1875,0 4.408405,-2.662931 6.09375,-6.233899 6.09375,-8.09375 0,-1.837726 -1.353459,-3.5 -3.3125,-3.5 -1.526282,0 -2.508055,1.27224 -2.875,1.75 -0.366945,-0.47776 -1.348718,-1.75 -2.875,-1.75 z" transform="translate(0,-5e-6)" style="text-indent:0;text-transform:none;direction:ltr;block-progression:tb;baseline-shift:baseline;color:#000000;enable-background:accumulate;" fill="#000000" fill-opacity="1" fill-rule="nonzero" stroke="none" marker="none" visibility="visible" display="inline" overflow="visible"/><text x="0" y="115" fill="#000000" font-size="5px" font-weight="bold" font-family="'Helvetica Neue', Helvetica, Arial-Unicode, Arial, Sans-serif">Created by Aha-Soft</text><text x="0" y="120" fill="#000000" font-size="5px" font-weight="bold" font-family="'Helvetica Neue', Helvetica, Arial-Unicode, Arial, Sans-serif">from the Noun Project</text></svg>