<svg xmlns="http://www.w3.org/2000/svg" xmlns:xlink="http://www.w3.org/1999/xlink" xml:space="preserve" version="1.0" style="shape-rendering:geometricPrecision;text-rendering:geometricPrecision;image-rendering:optimizeQuality;" viewBox="0 0 100 100" x="0px" y="0px" fill-rule="evenodd" clip-rule="evenodd"><defs><style type="text/css">
   
    .fil0 {fill:#020202}
   
  </style></defs><g><g><path class="fil0" d="M43 72l0 0c1,-1 0,-1 1,-2 1,0 1,0 1,2l0 0c0,-2 1,-3 2,-3 1,0 1,-2 -1,-4 1,1 2,2 3,5 -1,0 -1,0 -2,0 -1,0 -2,1 -2,3 0,0 0,0 1,0 0,0 0,1 0,1l1 0c1,0 1,0 1,1 1,0 1,1 0,2 0,0 -2,0 -2,1 2,6 -6,4 -9,1 -1,-2 -2,-4 -1,-6 -2,-1 -2,-2 -3,-3 -1,-3 1,-6 4,-6 2,0 4,1 5,2 0,1 0,3 0,4 0,0 0,0 0,0 0,1 0,1 0,1l1 1zm-3 23l26 0c0,-3 0,-8 -1,-12 0,-1 -1,-3 -2,-4l-1 -3c-3,-3 -2,-5 0,-11 1,-3 2,-1 3,-3 0,-2 0,-3 1,-6 1,-1 1,-2 2,-4 1,-1 2,-3 2,-4 0,-4 1,-9 -1,-12 -2,-3 -1,0 0,-4 0,-2 0,-5 -1,-6 0,-2 0,-4 1,-6 0,0 0,0 0,-1 0,1 1,1 2,1 0,-1 -1,-3 -3,-5 0,0 0,-1 0,-1l1 1c0,0 0,0 0,0 -1,-5 -4,-9 -9,-8 -5,1 -5,-4 -14,0 -1,0 -2,1 -3,2 -3,3 -3,8 -1,12l0 0c2,1 1,5 1,7 2,0 1,0 3,0 0,1 0,0 1,1 0,1 0,0 1,1 1,1 0,0 1,1 1,1 1,1 2,1 1,0 2,-1 3,-1 1,0 2,1 1,2l-3 6c0,1 0,1 -2,2 -1,1 -1,1 -2,2 -1,1 -2,1 -3,2 -2,1 -2,4 -2,6 -4,0 -2,-2 -5,1l0 0c-1,1 -1,2 -1,3 -1,1 0,1 0,3 -1,1 -2,2 -3,3 -1,0 -1,0 -1,1 -1,1 -2,2 -3,3 -1,2 -1,4 -1,6 0,4 1,7 4,10l0 0c1,2 3,4 6,5 0,0 0,1 0,1 0,2 1,2 1,4 0,1 0,3 0,4zm5 -21c-1,0 -1,0 -1,0 1,0 1,0 1,0 0,0 0,0 0,0 0,0 0,0 0,0zm-10 -11c4,-3 11,0 14,5 3,6 2,12 -3,14 -4,3 -10,1 -13,-5 -3,-5 -2,-12 2,-14z"></path></g></g></svg>