<svg xmlns="http://www.w3.org/2000/svg" xmlns:xlink="http://www.w3.org/1999/xlink" version="1.1" x="0px" y="0px" viewBox="0 0 100 125" enable-background="new 0 0 100 100" xml:space="preserve"><path d="M65.58,22.165V5H18.068v72.833H34.42V95h47.512V22.165H65.58z M77.12,75.932v3.461H39.328v-3.461H77.12z M39.334,74.265  v-3.458h27.574v3.458H39.334z M39.341,69.138v-3.459h37.791v3.459H39.341z M34.42,72.963H21.661V22.165V9.051H34.42h23.808  L34.42,22.165V72.963z M60.278,12.852v9.313H43.843L60.278,12.852z M39.228,26.835h37.791v26.59H39.228V26.835z M39.315,60.553  h27.575v3.458H39.315V60.553z M66.896,89.646H39.321v-3.458h27.574V89.646z M77.139,84.518H39.346V81.06h37.793V84.518z"/><text x="0" y="115" fill="#000000" font-size="5px" font-weight="bold" font-family="'Helvetica Neue', Helvetica, Arial-Unicode, Arial, Sans-serif">Created by Coby Graphics 1</text><text x="0" y="120" fill="#000000" font-size="5px" font-weight="bold" font-family="'Helvetica Neue', Helvetica, Arial-Unicode, Arial, Sans-serif">from the Noun Project</text></svg>