<svg xmlns="http://www.w3.org/2000/svg" xmlns:xlink="http://www.w3.org/1999/xlink" version="1.1" x="0px" y="0px" viewBox="0 0 100 125" enable-background="new 0 0 100 100" xml:space="preserve"><path display="none" fill="#000000" stroke="#EF116C" d="M74.494,81.044"/><path display="none" fill="none" stroke="#000000" stroke-width="0.75" d="M73.636,79.082c0,0,3.783,0.661,2.838-9.175  c0,0-7.568-4.446-12.392-4.446c-4.824,0-0.662-6.053-5.771-5.77c0,0,2.933-0.945,3.216-8.039c0,0,6.433-4.067,1.798-12.013  c0,0,3.972-15.795-4.446-16.269c0,0-6.999-8.323-22.038,1.892c0,0-4.824,5.865-0.757,15.418c0,0-5.296,5.864,2.649,10.972  c0,0-1.892,5.958,2.932,8.323c0,0-1.986-1.514-5.297,5.106c0,0-7.661,1.987-13.62,5.014l0.094,5.959c0,0,0.284,3.5,4.256,3.217"/><path display="none" fill="none" stroke="#000000" stroke-width="0.75" d="M87.851,61.758c0,0,1.956,0.341,1.468-4.741  c0,0-3.911-2.298-6.404-2.298c-2.494,0-0.343-3.13-2.982-2.983c0,0,1.515-0.488,1.662-4.155c0,0,3.324-2.102,0.929-6.208  c0,0,2.053-8.164-2.299-8.409c0,0-3.616-4.302-11.39,0.979c0,0-2.493,3.03-0.391,7.968c0,0-2.738,3.031,1.368,5.67  c0,0-0.978,3.08,1.516,4.303c0,0-1.026-0.783-2.737,2.64c0,0-3.961,1.026-7.04,2.59l0.049,3.081c0,0,0.146,1.809,2.2,1.662"/><path display="none" fill="none" stroke="#000000" stroke-width="0.75" d="M36.038,61.762c0,0,1.932,0.337,1.449-4.686  c0,0-3.865-2.271-6.328-2.271c-2.464,0-0.339-3.094-2.948-2.948c0,0,1.498-0.482,1.643-4.106c0,0,3.285-2.077,0.918-6.135  c0,0,2.029-8.068-2.271-8.31c0,0-3.574-4.251-11.257,0.967c0,0-2.463,2.995-0.386,7.875c0,0-2.706,2.995,1.353,5.604  c0,0-0.967,3.043,1.497,4.252c0,0-1.015-0.773-2.706,2.608c0,0-3.914,1.015-6.956,2.56l0.048,3.044c0,0,0.145,1.788,2.174,1.643"/><line display="none" fill="none" stroke="#000000" stroke-width="0.75" x1="39.259" y1="40.846" x2="44.779" y2="39.547"/><line display="none" fill="none" stroke="#000000" stroke-width="0.75" x1="52.248" y1="38.248" x2="58.743" y2="39.547"/><path display="none" fill="none" stroke="#000000" stroke-width="0.75" d="M40.882,44.093c0,0,0.325-1.624,3.247-1.299  C44.129,42.794,44.129,46.691,40.882,44.093z"/><path display="none" fill="none" stroke="#000000" stroke-width="0.75" d="M52.572,44.093c0,0,0.325-1.624,3.248-1.299  C55.82,42.794,55.82,46.691,52.572,44.093z"/><line display="none" fill="none" stroke="#000000" stroke-width="0.75" x1="47.702" y1="38.248" x2="47.702" y2="49.289"/><path display="none" fill="none" stroke="#000000" stroke-width="0.75" d="M36.25,69.875c0,0-4.813-0.188-2.625-2.063  s4-5.125,10.563-6.563c0,0,4.938-1,0-2c0,0-5.875,1.563-6.813,0.125c0,0,4.063-0.313,1-8.313c0,0-1.375-1.188,1.938-7.75  c0,0-1.438-7.375,2.813-11.688c0,0,3.375-2.813,8.188-0.563c0,0,7.938-3.063,9.375,6.875c0,0-1.625,5.125-0.313,7.438  s3.125,6.25,0.438,9.438s2.563,4.688,2.563,4.688s-6.563,0.938-9.25,0.563c0,0-0.188,1.875,4.5,1.313c0,0,4.75,0.813,9.5,7.188  c0,0-0.813,1.938-3.25,1.313"/><path display="none" fill="none" stroke="#000000" stroke-width="0.75" d="M36.25,69.875c0,0-4.813-0.188-2.625-2.063  s4-5.125,10.563-6.563c0,0,4.938-1,0-2c0,0-5.875,1.563-6.813,0.125c0,0,4.063-0.313,1-8.313c0,0-1.375-1.188,1.938-7.75  c0,0-1.438-7.375,2.813-11.688c0,0,3.375-2.813,8.188-0.563c0,0,7.938-3.063,9.375,6.875c0,0-1.625,5.125-0.313,7.438  s3.125,6.25,0.438,9.438s2.563,4.688,2.563,4.688s-6.563,0.938-9.25,0.563c0,0-0.188,1.875,4.5,1.313c0,0,4.75,0.813,9.5,7.188  c0,0-0.813,1.938-3.25,1.313"/><path fill="none" stroke="#000000" stroke-width="0.75" d="M36.856,65.976c0,0-3.873-0.149-2.112-1.659  c1.76-1.508,3.218-4.124,8.5-5.28c0,0,3.973-0.805,0-1.609c0,0-4.728,1.258-5.482,0.101c0,0,3.269-0.252,0.805-6.688  c0,0-1.106-0.956,1.559-6.236c0,0-1.157-5.935,2.263-9.405c0,0,2.716-2.263,6.588-0.453c0,0,6.388-2.464,7.545,5.532  c0,0-1.308,4.125-0.253,5.985c1.057,1.86,2.515,5.03,0.353,7.595c-2.162,2.563,2.063,3.771,2.063,3.771s-5.282,0.754-7.442,0.452  c0,0-0.151,1.508,3.62,1.056c0,0,3.822,0.653,7.644,5.783c0,0-0.654,1.56-2.614,1.056"/><path fill="none" stroke="#000000" stroke-width="0.75" d="M36.856,65.976c0,0-3.873-0.149-2.112-1.659  c1.76-1.508,3.218-4.124,8.5-5.28c0,0,3.973-0.805,0-1.609c0,0-4.728,1.258-5.482,0.101c0,0,3.269-0.252,0.805-6.688  c0,0-1.106-0.956,1.559-6.236c0,0-1.157-5.935,2.263-9.405c0,0,2.716-2.263,6.588-0.453c0,0,6.388-2.464,7.545,5.532  c0,0-1.308,4.125-0.253,5.985c1.057,1.86,2.515,5.03,0.353,7.595c-2.162,2.563,2.063,3.771,2.063,3.771s-5.282,0.754-7.442,0.452  c0,0-0.151,1.508,3.62,1.056c0,0,3.822,0.653,7.644,5.783c0,0-0.654,1.56-2.614,1.056"/><path fill="none" stroke="#000000" stroke-width="0.75" d="M60.79,59.464c0,0-2.195-0.086-1.197-0.94  c0.998-0.856,1.825-2.34,4.821-2.997c0,0,2.254-0.456,0-0.912c0,0-2.682,0.714-3.11,0.058c0,0,1.855-0.144,0.457-3.795  c0,0-0.628-0.542,0.884-3.538c0,0-0.655-3.367,1.284-5.335c0,0,1.541-1.284,3.737-0.257c0,0,3.624-1.398,4.28,3.138  c0,0-0.742,2.339-0.144,3.396c0.6,1.055,1.427,2.852,0.2,4.308c-1.227,1.455,1.17,2.14,1.17,2.14s-2.996,0.428-4.223,0.256  c0,0-0.086,0.857,2.055,0.6c0,0,2.168,0.371,4.337,3.281c0,0-0.371,0.885-1.484,0.599"/><path fill="none" stroke="#000000" stroke-width="0.75" d="M60.79,59.464c0,0-2.195-0.086-1.197-0.94  c0.998-0.856,1.825-2.34,4.821-2.997c0,0,2.254-0.456,0-0.912c0,0-2.682,0.714-3.11,0.058c0,0,1.855-0.144,0.457-3.795  c0,0-0.628-0.542,0.884-3.538c0,0-0.655-3.367,1.284-5.335c0,0,1.541-1.284,3.737-0.257c0,0,3.624-1.398,4.28,3.138  c0,0-0.742,2.339-0.144,3.396c0.6,1.055,1.427,2.852,0.2,4.308c-1.227,1.455,1.17,2.14,1.17,2.14s-2.996,0.428-4.223,0.256  c0,0-0.086,0.857,2.055,0.6c0,0,2.168,0.371,4.337,3.281c0,0-0.371,0.885-1.484,0.599"/><path fill="none" stroke="#000000" stroke-width="0.75" d="M22.044,59.464c0,0-2.196-0.086-1.198-0.94  c0.998-0.856,1.826-2.34,4.821-2.997c0,0,2.254-0.456,0-0.912c0,0-2.682,0.714-3.11,0.058c0,0,1.855-0.144,0.457-3.795  c0,0-0.628-0.542,0.884-3.538c0,0-0.656-3.367,1.285-5.335c0,0,1.54-1.284,3.737-0.257c0,0,3.624-1.398,4.28,3.138  c0,0-0.742,2.339-0.143,3.396c0.599,1.055,1.426,2.852,0.199,4.308c-1.226,1.455,1.171,2.14,1.171,2.14s-2.997,0.428-4.223,0.256  c0,0-0.086,0.857,2.054,0.6c0,0,2.168,0.371,4.336,3.281c0,0-0.371,0.885-1.484,0.599"/><path fill="none" stroke="#000000" stroke-width="0.75" d="M22.044,59.464c0,0-2.196-0.086-1.198-0.94  c0.998-0.856,1.826-2.34,4.821-2.997c0,0,2.254-0.456,0-0.912c0,0-2.682,0.714-3.11,0.058c0,0,1.855-0.144,0.457-3.795  c0,0-0.628-0.542,0.884-3.538c0,0-0.656-3.367,1.285-5.335c0,0,1.54-1.284,3.737-0.257c0,0,3.624-1.398,4.28,3.138  c0,0-0.742,2.339-0.143,3.396c0.599,1.055,1.426,2.852,0.199,4.308c-1.226,1.455,1.171,2.14,1.171,2.14s-2.997,0.428-4.223,0.256  c0,0-0.086,0.857,2.054,0.6c0,0,2.168,0.371,4.336,3.281c0,0-0.371,0.885-1.484,0.599"/><text x="0" y="115" fill="#000000" font-size="5px" font-weight="bold" font-family="'Helvetica Neue', Helvetica, Arial-Unicode, Arial, Sans-serif">Created by BenPixels</text><text x="0" y="120" fill="#000000" font-size="5px" font-weight="bold" font-family="'Helvetica Neue', Helvetica, Arial-Unicode, Arial, Sans-serif">from the Noun Project</text></svg>