<svg xmlns="http://www.w3.org/2000/svg" xmlns:xlink="http://www.w3.org/1999/xlink" version="1.1" x="0px" y="0px" viewBox="0 0 100 125" enable-background="new 0 0 100 100" xml:space="preserve"><path d="M89.184,81.856l-0.137-56.688c-0.012-4.315-3.13-7.814-6.963-7.807l-11.736,0.031l-0.009-3.008  c-0.001-1.73-1.41-3.125-3.138-3.122c-1.728,0.004-3.129,1.409-3.122,3.138l0.006,3.006l-27.953,0.068l-0.005-3.006  c-0.006-1.728-1.41-3.128-3.139-3.122c-1.729,0.002-3.125,1.404-3.124,3.136l0.009,3.008l-11.741,0.024  c-3.827,0.01-6.933,3.53-6.92,7.841l0.134,56.684c0.012,4.311,3.133,7.816,6.96,7.808l63.954-0.156  C86.092,89.683,89.193,86.165,89.184,81.856z M82.245,83.432l-63.954,0.153c-0.138-0.018-0.682-0.545-0.683-1.558l-0.138-56.689  c-0.001-1.01,0.538-1.542,0.679-1.563l11.856-0.026c0.359,1.333,1.569,2.322,3.019,2.315c1.447-0.001,2.652-0.994,3.005-2.331  l28.189-0.067c0.363,1.335,1.568,2.32,3.02,2.315c1.448-0.003,2.654-0.994,3.007-2.33l11.859-0.03c0.112,0,0.681,0.523,0.685,1.559  l0.138,56.689C82.927,82.905,82.359,83.429,82.245,83.432z"/><path d="M43.494,42.244c0.005,1.02,0.833,1.85,1.859,1.848l9.645-0.024c1.021,0,1.852-0.836,1.848-1.86l-0.021-9.641  c-0.004-1.025-0.837-1.85-1.86-1.85l-9.643,0.024c-1.026,0.001-1.852,0.836-1.85,1.86L43.494,42.244z"/><path d="M63.277,42.193c0.004,1.024,0.836,1.853,1.857,1.853l9.645-0.025c1.022-0.004,1.853-0.836,1.85-1.859l-0.026-9.644  c0-1.021-0.834-1.847-1.854-1.847l-9.645,0.024c-1.022,0.001-1.851,0.833-1.847,1.857L63.277,42.193z"/><path d="M37.107,59.571l-0.024-9.646c-0.004-1.021-0.837-1.848-1.86-1.848l-9.644,0.024c-1.025,0.004-1.851,0.835-1.847,1.859  l0.024,9.641c0,1.022,0.831,1.854,1.855,1.85l9.643-0.022C36.28,61.425,37.107,60.593,37.107,59.571z"/><path d="M55.011,48.033l-9.649,0.024c-1.024,0.002-1.852,0.833-1.847,1.855l0.021,9.642c0.004,1.024,0.833,1.852,1.859,1.851  l9.642-0.021c1.024-0.005,1.854-0.835,1.851-1.861l-0.022-9.641C56.86,48.857,56.026,48.031,55.011,48.033z"/><path d="M76.646,49.834c-0.005-1.025-0.832-1.851-1.861-1.851l-9.64,0.022c-1.024,0.002-1.85,0.837-1.85,1.859l0.026,9.645  c0.001,1.024,0.832,1.85,1.854,1.847l9.643-0.021c1.022-0.005,1.853-0.836,1.85-1.858L76.646,49.834z"/><path d="M37.119,66.475c0-1.028-0.835-1.853-1.855-1.853l-9.643,0.022c-1.026,0.006-1.848,0.836-1.849,1.859l0.026,9.644  c-0.001,1.023,0.83,1.854,1.853,1.852l9.647-0.025c1.02-0.001,1.848-0.838,1.849-1.854L37.119,66.475z"/><path d="M56.9,66.427c0-1.026-0.831-1.856-1.853-1.85l-9.646,0.02c-1.023,0.001-1.852,0.836-1.847,1.862l0.024,9.641  c0,1.021,0.829,1.853,1.855,1.851l9.645-0.021c1.02-0.003,1.85-0.84,1.845-1.861L56.9,66.427z"/><text x="0" y="115" fill="#000000" font-size="5px" font-weight="bold" font-family="'Helvetica Neue', Helvetica, Arial-Unicode, Arial, Sans-serif">Created by Le Floch</text><text x="0" y="120" fill="#000000" font-size="5px" font-weight="bold" font-family="'Helvetica Neue', Helvetica, Arial-Unicode, Arial, Sans-serif">from the Noun Project</text></svg>