<svg xmlns="http://www.w3.org/2000/svg" xmlns:xlink="http://www.w3.org/1999/xlink" version="1.1" x="0px" y="0px" viewBox="0 0 100 125" enable-background="new 0 0 100 100" xml:space="preserve"><path d="M26.252,63.929c-8.499,0-15.413-6.914-15.413-15.412c0-8.499,6.914-15.413,15.413-15.413  c8.498,0,15.412,6.914,15.412,15.413C41.664,57.015,34.75,63.929,26.252,63.929z M26.252,34.104  c-7.947,0-14.413,6.465-14.413,14.413s6.465,14.412,14.413,14.412c7.947,0,14.412-6.465,14.412-14.412S34.199,34.104,26.252,34.104z  "/><path d="M72.252,33.104c-8.498,0-15.412,6.914-15.412,15.413c0,8.498,6.914,15.412,15.412,15.412s15.412-6.914,15.412-15.412  C87.664,40.018,80.75,33.104,72.252,33.104z"/><polygon points="39.403,71.854 30.982,64.603 30.982,76.182 34.958,74.139 37.436,79.095 38.33,78.647 35.847,73.682 "/><text x="0" y="115" fill="#000000" font-size="5px" font-weight="bold" font-family="'Helvetica Neue', Helvetica, Arial-Unicode, Arial, Sans-serif">Created by Y</text><text x="0" y="120" fill="#000000" font-size="5px" font-weight="bold" font-family="'Helvetica Neue', Helvetica, Arial-Unicode, Arial, Sans-serif">from the Noun Project</text></svg>