<svg xmlns="http://www.w3.org/2000/svg" xmlns:xlink="http://www.w3.org/1999/xlink" version="1.1" x="0px" y="0px" viewBox="-255 347 100 125" enable-background="new -255 347 100 100" xml:space="preserve"><path fill="#000000" d="M-178.313,352.316h-45.298c-3.944,0-7.154,3.052-7.483,6.912c-3.893,0.295-6.982,3.522-6.982,7.49v67.418  c0,4.162,3.386,7.547,7.547,7.547h43.412c3.924,0,7.121-3.021,7.477-6.854h1.327c4.161,0,7.547-3.385,7.547-7.547v-67.419  C-170.766,355.701-174.151,352.316-178.313,352.316z M-187.117,437.909h-43.412c-2.081,0-3.773-1.693-3.773-3.773v-67.418  c0-1.866,1.363-3.408,3.144-3.71v64.274c0,4.162,3.386,7.547,7.547,7.547h40.197C-183.741,436.578-185.273,437.909-187.117,437.909z   M-174.539,427.281c0,2.08-1.692,3.773-3.773,3.773h-45.298c-2.081,0-3.773-1.693-3.773-3.773v-67.419  c0-2.081,1.692-3.773,3.773-3.773h45.298c2.081,0,3.773,1.692,3.773,3.773V427.281z M-212.652,406.957l3.877,3.849l-2.668,2.668  l-3.877-3.849l-3.866,3.81l-2.668-2.668l3.866-3.81l-3.709-3.786l2.668-2.668l3.709,3.786l3.843-3.82l2.668,2.668L-212.652,406.957z   M-214.121,377.791l-2.668,2.668l-2.668-2.668l-2.645-2.646l2.668-2.668l2.645,2.646l6.058-5.916l2.668,2.668L-214.121,377.791z   M-181.863,371.875h-19.618c-0.55,0-1-0.45-1-1v-1.773c0-0.55,0.45-1,1-1h19.618c0.55,0,1,0.45,1,1v1.773  C-180.863,371.425-181.313,371.875-181.863,371.875z M-181.863,383.195h-19.618c-0.55,0-1-0.45-1-1v-1.773c0-0.55,0.45-1,1-1h19.618  c0.55,0,1,0.45,1,1v1.773C-180.863,382.745-181.313,383.195-181.863,383.195z M-181.863,402.534h-19.618c-0.55,0-1-0.45-1-1v-1.773  c0-0.55,0.45-1,1-1h19.618c0.55,0,1,0.45,1,1v1.773C-180.863,402.084-181.313,402.534-181.863,402.534z M-181.863,413.854h-19.618  c-0.55,0-1-0.45-1-1v-1.773c0-0.55,0.45-1,1-1h19.618c0.55,0,1,0.45,1,1v1.773C-180.863,413.404-181.313,413.854-181.863,413.854z"/><text x="-255" y="462" fill="#000000" font-size="5px" font-weight="bold" font-family="'Helvetica Neue', Helvetica, Arial-Unicode, Arial, Sans-serif">Created by Ilya Tsarenko</text><text x="-255" y="467" fill="#000000" font-size="5px" font-weight="bold" font-family="'Helvetica Neue', Helvetica, Arial-Unicode, Arial, Sans-serif">from the Noun Project</text></svg>