<?xml version="1.0" encoding="UTF-8" standalone="no"?>
<svg
   xmlns:dc="http://purl.org/dc/elements/1.1/"
   xmlns:cc="http://creativecommons.org/ns#"
   xmlns:rdf="http://www.w3.org/1999/02/22-rdf-syntax-ns#"
   xmlns:svg="http://www.w3.org/2000/svg"
   xmlns="http://www.w3.org/2000/svg"
   xmlns:sodipodi="http://sodipodi.sourceforge.net/DTD/sodipodi-0.dtd"
   xmlns:inkscape="http://www.inkscape.org/namespaces/inkscape"
   version="1.1"
   x="0px"
   y="0px"
   viewBox="0 0 100 125"
   enable-background="new 0 0 100 100"
   xml:space="preserve"
   id="svg2"
   inkscape:version="0.91 r13725"
   sodipodi:docname="noun_85868_cc.svg"><metadata
     id="metadata14"><rdf:RDF><cc:Work
         rdf:about=""><dc:format>image/svg+xml</dc:format><dc:type
           rdf:resource="http://purl.org/dc/dcmitype/StillImage" /></cc:Work></rdf:RDF></metadata><defs
     id="defs12" /><sodipodi:namedview
     pagecolor="#ffffff"
     bordercolor="#666666"
     borderopacity="1"
     objecttolerance="10"
     gridtolerance="10"
     guidetolerance="10"
     inkscape:pageopacity="0"
     inkscape:pageshadow="2"
     inkscape:window-width="640"
     inkscape:window-height="480"
     id="namedview10"
     showgrid="false"
     inkscape:zoom="1.888"
     inkscape:cx="50"
     inkscape:cy="62.5"
     inkscape:window-x="390"
     inkscape:window-y="199"
     inkscape:window-maximized="0"
     inkscape:current-layer="svg2" /><path
     d="M0,23.958v52.083c0,4.597,3.737,8.333,8.333,8.333h83.333c4.595,0,8.334-3.737,8.334-8.333V23.958  c0-4.597-3.739-8.332-8.334-8.332H8.333C3.737,15.626,0,19.361,0,23.958z M91.666,19.792c2.295,0,4.167,1.869,4.167,4.166v52.083  c0,2.297-1.872,4.167-4.167,4.167H8.333c-2.297,0-4.167-1.87-4.167-4.167V23.958c0-2.297,1.87-4.166,4.167-4.166H91.666z   M85.416,48.957c0-2.301,1.865-4.167,4.167-4.167s4.167,1.866,4.167,4.167s-1.865,4.167-4.167,4.167S85.416,51.258,85.416,48.957z   M8.333,26.041v47.916c0,1.15,0.933,2.083,2.084,2.083H81.25c1.15,0,2.083-0.933,2.083-2.083V26.04c0-1.151-0.933-2.083-2.083-2.083  H10.417C9.266,23.958,8.333,24.891,8.333,26.041z M12.5,28.124h66.667v43.5H12.5V28.124z M39.813,38.042l12.501,12.5l-12.501,12.5  V38.042z"
     id="path4"
     style="fill:#666666" /><text
     x="0"
     y="115"
     fill="#000000"
     font-size="5px"
     font-weight="bold"
     font-family="'Helvetica Neue', Helvetica, Arial-Unicode, Arial, Sans-serif"
     id="text6">Created by Wynne Nafus Sayer</text>
<text
     x="0"
     y="120"
     fill="#000000"
     font-size="5px"
     font-weight="bold"
     font-family="'Helvetica Neue', Helvetica, Arial-Unicode, Arial, Sans-serif"
     id="text8">from the Noun Project</text>
</svg>