<svg xmlns="http://www.w3.org/2000/svg" xmlns:xlink="http://www.w3.org/1999/xlink" version="1.1" x="0px" y="0px" viewBox="0 0 100 125" enable-background="new 0 0 100 100" xml:space="preserve"><path d="M65.646,1.274c-5.892,0-11.029,3.224-13.749,8.002c-0.807-1.58-2.595-4.357-5.481-5.086  c-4.649-1.174-9.773,1.15-12.294,4.943c-2.523,3.792-5.464,11.494-9.773,12.989c-3.361,1.165,8.303,2.644,13.767-0.576  c3.619-2.131,5.521-6.552,8.195-6.896c1.093-0.14,2.383,0.087,3.646,0.467c-0.08,0.647-0.127,1.304-0.127,1.973  c0,8.735,7.081,15.814,15.816,15.814c8.733,0,15.814-7.079,15.814-15.814C81.46,8.354,74.379,1.274,65.646,1.274z"/><path d="M94.818,77.019c-2.289-8.86-13.535-15.666-20.156-19.825c-2.791,4.101-9.355,5.89-9.64,5.966  c-0.139,0.036-0.276,0.053-0.413,0.053c-0.709,0-1.356-0.472-1.547-1.189c-0.228-0.854,0.279-1.732,1.135-1.96  c1.639-0.44,6.262-2.167,7.926-4.835c1.18-1.888,1.386-4.473,0.922-6.119c-1.459-5.183-8.291-7.876-10.964-9.269  c-4.198-2.188-5.438-4.415-7.769-7.949c-1.088-1.653-3.239-4.241-4.823-5.178c-3.465-2.05-7.925-1.019-10.025,2.42L3.804,87.646  c-2.1,3.437-1.017,7.925,2.421,10.025c1.186,0.726,2.499,1.07,3.795,1.07c2.456,0,4.855-1.24,6.23-3.491l28.936-47.316  c0.455-0.749,1.431-0.981,2.178-0.524c0.746,0.457,0.98,1.433,0.525,2.18L36.722,67.815c1.733,3.309,4.569,9.32,5.794,15.307  c1.214,5.925,0.966,11.927,0.577,15.774l38.447-0.028C89.242,98.868,97.833,88.688,94.818,77.019z"/><text x="0" y="115" fill="#000000" font-size="5px" font-weight="bold" font-family="'Helvetica Neue', Helvetica, Arial-Unicode, Arial, Sans-serif">Created by Luis Prado</text><text x="0" y="120" fill="#000000" font-size="5px" font-weight="bold" font-family="'Helvetica Neue', Helvetica, Arial-Unicode, Arial, Sans-serif">from the Noun Project</text></svg>