<?xml version="1.0" encoding="UTF-8" standalone="no"?>
<svg
   xmlns:dc="http://purl.org/dc/elements/1.1/"
   xmlns:cc="http://creativecommons.org/ns#"
   xmlns:rdf="http://www.w3.org/1999/02/22-rdf-syntax-ns#"
   xmlns:svg="http://www.w3.org/2000/svg"
   xmlns="http://www.w3.org/2000/svg"
   xmlns:sodipodi="http://sodipodi.sourceforge.net/DTD/sodipodi-0.dtd"
   xmlns:inkscape="http://www.inkscape.org/namespaces/inkscape"
   version="1.1"
   x="0px"
   y="0px"
   viewBox="0 0 100 125"
   enable-background="new 0 0 100 100"
   xml:space="preserve"
   id="svg2"
   inkscape:version="0.91 r13725"
   sodipodi:docname="noun_201484_cc blanc.svg"><metadata
     id="metadata22"><rdf:RDF><cc:Work
         rdf:about=""><dc:format>image/svg+xml</dc:format><dc:type
           rdf:resource="http://purl.org/dc/dcmitype/StillImage" /><dc:title></dc:title></cc:Work></rdf:RDF></metadata><defs
     id="defs20" /><sodipodi:namedview
     pagecolor="#ffffff"
     bordercolor="#666666"
     borderopacity="1"
     objecttolerance="10"
     gridtolerance="10"
     guidetolerance="10"
     inkscape:pageopacity="0"
     inkscape:pageshadow="2"
     inkscape:window-width="640"
     inkscape:window-height="480"
     id="namedview18"
     showgrid="false"
     inkscape:zoom="1.888"
     inkscape:cx="50"
     inkscape:cy="62.5"
     inkscape:window-x="0"
     inkscape:window-y="23"
     inkscape:window-maximized="0"
     inkscape:current-layer="svg2" /><g
     id="g4"
     style="fill:#ffffff"><g
       id="g6"
       style="fill:#ffffff"><circle
         cx="36.228"
         cy="13.305"
         r="6.299"
         id="circle8"
         style="fill:#ffffff" /><path
         d="M83.509,46.455c-0.948-1.585-3.003-2.1-4.588-1.15c-0.581,0.348-1.016,0.88-1.291,1.448l-4.186,7.546    c-0.192,0.333-0.411,0.465-0.82,0.465H60.977c-0.191,0-0.423-0.135-0.518-0.3c0,0-4.397-7.707-4.491-7.873    c-0.01-0.018-0.022-0.035-0.031-0.051c-0.947-3.085-5.063-16.5-5.063-16.5c-0.749-2.607-2.181-8.542-7.717-8.542H29.318    c-5.158,0-6.984,5.935-7.734,8.542c-0.017,0.056-4.916,16.055-4.918,16.062c-0.532,1.733,0.442,3.57,2.175,4.101    c1.733,0.532,3.568-0.443,4.101-2.175c0.001,0,4.907-15.992,4.907-15.992c0.029-0.067,0.175-0.349,0.518-0.349    c0.031,0,0.69,0,0.69,0h0.001c0.196-0.002,0.31,0.164,0.258,0.35l-9.82,32.136c-0.053,0.188,0,0.515,0.341,0.515h6.889    c0.195,0,0.338,0.159,0.338,0.354c0,0-0.001,23.411-0.001,23.418c0,2.338,1.895,4.233,4.231,4.233    c2.339,0,4.233-1.896,4.233-4.233l0.001-23.419c0-0.195,0.158-0.352,0.354-0.352h0.005h0.677h0.005    c0.196,0,0.354,0.158,0.354,0.352l0.001,23.419c0,2.338,1.896,4.233,4.232,4.233c2.338,0,4.233-1.896,4.233-4.233    c0-0.007-0.001-23.418-0.001-23.418c0-0.196,0.142-0.354,0.338-0.354h6.889c0.342,0,0.396-0.328,0.342-0.515l-9.819-32.135    c-0.051-0.188,0.062-0.353,0.258-0.351h0.001c0,0,0.66,0,0.692,0c0.342,0,0.488,0.281,0.518,0.348c0,0,4.595,14.957,5.182,16.861    c0.094,0.414,0.265,0.799,0.49,1.142l7.515,13.004c0.096,0.166,0.173,0.455,0.173,0.645v24.971    c0.033,2.075,1.839,4.035,4.113,4.035c2.273,0,4.322-1.948,4.355-4.023l0.001-10.449c0-0.191,0.155-0.346,0.346-0.346h0.518    c0.19,0,0.345,0.155,0.345,0.346l0.004,10.502c0.033,2.074,1.686,3.97,3.958,3.97c2.148,0,3.911-1.8,4.128-3.748    c0.021-0.189,0.035-24.852,0.035-24.852s0.074-0.481,0.168-0.649c0,0,7.516-13.455,7.61-13.622    C84.125,48.81,84.151,47.525,83.509,46.455z"
         id="path10"
         style="fill:#ffffff" /><path
         d="M66.849,52.752c2.56,0,4.635-2.075,4.635-4.635c0-1.583-0.794-2.98-2.004-3.816v-2.715l-1.25,2.105    c-0.136-0.042-0.276-0.079-0.418-0.109v-1.996l-1.139,1.899c-0.185,0.008-0.367,0.024-0.545,0.052v-1.952l-1.442,2.431    c-1.47,0.777-2.472,2.321-2.472,4.1C62.214,50.677,64.29,52.752,66.849,52.752z"
         id="path12"
         style="fill:#ffffff" /></g></g><text
     x="0"
     y="115"
     fill="#000000"
     font-size="5px"
     font-weight="bold"
     font-family="'Helvetica Neue', Helvetica, Arial-Unicode, Arial, Sans-serif"
     id="text14"
     style="fill:#ffffff;">Created by shimaru</text>
<text
     x="0"
     y="120"
     fill="#000000"
     font-size="5px"
     font-weight="bold"
     font-family="'Helvetica Neue', Helvetica, Arial-Unicode, Arial, Sans-serif"
     id="text16"
     style="fill:#ffffff;">from the Noun Project</text>
</svg>