<svg xmlns="http://www.w3.org/2000/svg" xmlns:xlink="http://www.w3.org/1999/xlink" version="1.1" x="0px" y="0px" viewBox="-909 491 100 125" style="enable-background:new -909 491 100 100;" xml:space="preserve"><path d="M-821,554.8v-22.6c0,0,0-6.2-5.1-6.2c-5.3,0-5.1,5.8-5.1,5.8v1.6c-0.2,0.6-0.6,1-1.1,0.8c-1.2-0.4-1.2-1.6-1.2-1.6v-6.3  c0,0,0-6.2-5.1-6.2c-5.3,0-5.1,5.8-5.1,5.8v3.8c0,0-0.1,2.1-1.1,2.1c-1.1,0-0.9-1.9-0.9-1.9v-8.3c0,0,0-6.4-5.7-6.4  c-6,0-5.8,6.6-5.8,6.6v9.9c0,0,0.1,1.4-1.3,1.4c-1.1,0-1-1.1-1-1.1v-26.4c0-8-6.2-7.1-6.2-7.1c-6.8,0-6.4,7.7-6.4,7.7v45.8  c-16.8-27.4-24.7-10.2-24.7-10.2c4.8,0.4,20.1,23.3,20.1,23.3c7.8,18.7,24,18.7,24,18.7C-819,583.7-821,554.8-821,554.8z"/><text x="-909" y="606" fill="#000000" font-size="5px" font-weight="bold" font-family="'Helvetica Neue', Helvetica, Arial-Unicode, Arial, Sans-serif">Created by Ryan Dell</text><text x="-909" y="611" fill="#000000" font-size="5px" font-weight="bold" font-family="'Helvetica Neue', Helvetica, Arial-Unicode, Arial, Sans-serif">from the Noun Project</text></svg>