<svg xmlns="http://www.w3.org/2000/svg" xmlns:xlink="http://www.w3.org/1999/xlink" version="1.1" x="0px" y="0px" viewBox="0 0 100 125" enable-background="new 0 0 100 100" xml:space="preserve"><g><g><path d="M56.856,56.408c1.794,1.583,3.889,2.353,5.896,2.353c3.987,0,7.628-3.037,7.867-8.761    c-0.239-5.724-3.88-8.761-7.868-8.761c-2.007,0-4.102,0.77-5.896,2.353c-1.122,0.99-2.383,1.49-3.552,1.49    c-2.222,0-4.115-1.804-4.117-5.477V28.659c0-1.797-1.457-3.253-3.254-3.253H34.994h0.001c-5.614,0-6.864-4.415-3.993-7.669    c4.729-5.358,2.196-13.405-6.408-13.764c-8.604,0.358-11.137,8.405-6.408,13.764c2.871,3.254,1.621,7.669-3.993,7.669h0.001H3.254    C1.457,25.406,0,26.862,0,28.659v10.952c0.005,3.669,1.898,5.471,4.118,5.471c1.169,0,2.429-0.5,3.552-1.49    c1.793-1.583,3.889-2.353,5.896-2.353c3.988,0,7.629,3.036,7.868,8.761c-0.239,5.723-3.88,8.761-7.868,8.761    c-2.007,0-4.102-0.77-5.896-2.353c-1.122-0.99-2.383-1.49-3.552-1.49c-2.221,0-4.113,1.801-4.118,5.471V71.34    c0,1.797,1.457,3.254,3.254,3.254h10.939h-0.001c5.614,0,6.864,4.415,3.993,7.669c-4.729,5.358-2.196,13.405,6.408,13.764    c8.604-0.358,11.137-8.405,6.408-13.764c-2.871-3.254-1.621-7.669,3.993-7.669l0,0h10.938c1.797,0,3.254-1.457,3.254-3.254V60.395    c0.002-3.673,1.896-5.477,4.117-5.477C54.474,54.918,55.734,55.418,56.856,56.408z"/></g><g><path d="M92.331,43.591c3.255,2.871,7.669,1.621,7.669-3.992V28.659c0-1.797-1.456-3.253-3.253-3.253H85.808h0.001    c-5.614,0-6.864-4.415-3.993-7.669c4.729-5.358,2.195-13.405-6.408-13.764c-8.604,0.358-11.137,8.405-6.408,13.764    c2.871,3.254,1.621,7.669-3.993,7.669h0.001h-10.94c-1.796,0-3.252,1.456-3.253,3.252v0.001v10.945    c0.002,2.375,0.956,3.851,2.491,3.851c0.805,0,1.684-0.385,2.476-1.083c2.016-1.779,4.492-2.76,6.972-2.76    c5.336,0,9.24,4.244,9.493,10.319L72.248,50l-0.003,0.067c-0.253,6.076-4.157,10.319-9.492,10.319    c-2.48,0-4.957-0.979-6.973-2.759c-0.792-0.698-1.671-1.083-2.476-1.083c-1.535,0-2.489,1.476-2.491,3.85V71.34    c0,0.001,0,0.001,0,0.002c0.001,1.796,1.457,3.252,3.253,3.252h10.941h-0.002c5.614,0,6.864,4.415,3.993,7.669    c-4.729,5.358-2.196,13.405,6.408,13.764c8.604-0.358,11.137-8.405,6.408-13.764c-2.871-3.254-1.621-7.669,3.993-7.669h-0.001    h10.939c1.797,0,3.253-1.457,3.253-3.254V60.4c0-5.613-4.414-6.864-7.669-3.992C86.973,61.136,78.927,58.604,78.567,50    C78.927,41.396,86.973,38.863,92.331,43.591z"/></g></g><text x="0" y="115" fill="#000000" font-size="5px" font-weight="bold" font-family="'Helvetica Neue', Helvetica, Arial-Unicode, Arial, Sans-serif">Created by Márcio Duarte</text><text x="0" y="120" fill="#000000" font-size="5px" font-weight="bold" font-family="'Helvetica Neue', Helvetica, Arial-Unicode, Arial, Sans-serif">from the Noun Project</text></svg>