<svg xmlns="http://www.w3.org/2000/svg" xmlns:xlink="http://www.w3.org/1999/xlink" xmlns:sketch="http://www.bohemiancoding.com/sketch/ns" viewBox="0 0 76 112.5" version="1.1" x="0px" y="0px"><title>Imported Layers</title><desc>Created with Sketch.</desc><g stroke="none" stroke-width="1" fill="none" fill-rule="evenodd" sketch:type="MSPage"><g sketch:type="MSArtboardGroup" transform="translate(-11.000000, -5.000000)" fill="#000000"><g sketch:type="MSLayerGroup" transform="translate(11.000000, 5.000000)"><path d="M23.1999172,8.32421965 L22.7837517,14.1846243 C23.0484414,13.4942775 23.1999172,12.7482659 23.1999172,11.9658382 L23.1999172,8.32421965" sketch:type="MSShapeGroup"/><path d="M58.8412966,14.046763 C59.9991172,14.046763 60.9378483,13.1150289 60.9378483,11.9658382 L60.9378483,2.08144509 C60.9378483,1.45612717 60.6542897,0.902080925 60.2145379,0.520751445 C59.846069,0.200809249 59.3696276,0.000520231214 58.8412966,0.000520231214 C58.3129655,0.000520231214 57.8365241,0.200809249 57.4680552,0.520751445 C57.0283034,0.902080925 56.7447448,1.45612717 56.7447448,2.08144509 L56.7447448,11.9658382 C56.7447448,13.1150289 57.6834759,14.046763 58.8412966,14.046763" sketch:type="MSShapeGroup"/><path d="M69.3240552,8.32421965 L65.1309517,8.32421965 L65.1309517,11.9658382 C65.1309517,15.4134104 62.3147586,18.2086127 58.8412966,18.2086127 C55.3678345,18.2086127 52.5516414,15.4134104 52.5516414,11.9658382 L52.5516414,8.32421965 L23.1999172,8.32421965 L23.1999172,11.9658382 C23.1999172,12.7482659 23.0484414,13.4942775 22.7837517,14.1846243 C21.8817103,16.5355491 19.5954207,18.2086127 16.9102621,18.2086127 C13.4368,18.2086127 10.6206069,15.4134104 10.6206069,11.9658382 L10.6206069,8.32421965 L6.42750345,8.32421965 C2.95404138,8.32421965 0.137848276,11.119422 0.137848276,14.5669942 L0.137848276,83.2375145 C0.137848276,86.6850867 2.95404138,89.480289 6.42750345,89.480289 L69.3240552,89.480289 C72.7975172,89.480289 75.6137103,86.6850867 75.6137103,83.2375145 L75.6137103,14.5669942 C75.6137103,11.119422 72.7975172,8.32421965 69.3240552,8.32421965 L69.3240552,8.32421965 Z M8.52405517,24.9716185 L67.2275034,24.9716185 L67.2275034,81.1565896 L8.52405517,81.1565896 L8.52405517,24.9716185 Z" sketch:type="MSShapeGroup"/><path d="M16.9102621,14.046763 C18.0680828,14.046763 19.0068138,13.1150289 19.0068138,11.9658382 L19.0068138,2.08144509 C19.0068138,1.45612717 18.7232552,0.902080925 18.2835034,0.520751445 C17.9150345,0.200809249 17.4385931,0.000520231214 16.9102621,0.000520231214 C16.3824552,0.000520231214 15.9054897,0.200809249 15.5370207,0.520751445 C15.097269,0.902080925 14.8137103,1.45612717 14.8137103,2.08144509 L14.8137103,11.9658382 C14.8137103,13.1150289 15.7524414,14.046763 16.9102621,14.046763" sketch:type="MSShapeGroup"/><path d="M56.6357241,36.9353757 L37.8757793,55.1450289 L25.9270069,43.6172254 L21.6296,47.7790751 L37.8757793,63.4687283 L60.9326069,41.0972254 L56.6357241,36.9353757" sketch:type="MSShapeGroup"/></g></g></g><text x="0" y="105" fill="#000000" font-size="5px" font-weight="bold" font-family="'Helvetica Neue', Helvetica, Arial-Unicode, Arial, Sans-serif">Created by Bram van Rijen</text><text x="0" y="110" fill="#000000" font-size="5px" font-weight="bold" font-family="'Helvetica Neue', Helvetica, Arial-Unicode, Arial, Sans-serif">from the Noun Project</text></svg>