<svg xmlns="http://www.w3.org/2000/svg" xmlns:xlink="http://www.w3.org/1999/xlink" version="1.1" x="0px" y="0px" viewBox="0 0 100 125" enable-background="new 0 0 100 100" xml:space="preserve"><path d="M71.96,32.94H12.557c-3.562,0-6.449,2.887-6.449,6.449V76.62c0,3.562,2.887,6.449,6.449,6.449H71.96  c3.562,0,6.449-2.887,6.449-6.449V39.389C78.409,35.827,75.521,32.94,71.96,32.94z M43.6,71.819  c-4.591,2.26-9.778,3.533-15.27,3.533c-5.492,0-10.68-1.273-15.27-3.533v-1.88c0,0,0.11-2.127,2.19-3.106  c2.08-0.979,3.139-1.174,3.212-1.214c0.063-0.034,3.547-0.949,5.146-1.819c0.376-0.241,0.611-0.421,0.611-0.421V61.72  c-5.418,0.048-7.014-2.274-7.014-2.274s3.096-0.048,2.904-8.22c-0.192-8.172,3.576-9.521,4.98-10.056  c4.089-1.555,6.144,0.918,6.144,0.918c4.74-0.438,6.049,4.74,5.466,10.638s2.658,6.816,2.658,6.816  c-2.226,2.274-6.918,2.13-6.918,2.13v1.485h0.001v0.244c0,0,0.236,0.18,0.612,0.42c1.599,0.87,5.083,1.785,5.146,1.819  c0.073,0.039,1.131,0.235,3.212,1.214c2.081,0.979,2.19,3.106,2.19,3.106V71.819z M69.827,63.749c0,0.481-0.39,0.871-0.871,0.871  H47.311c-0.481,0-0.871-0.39-0.871-0.871v-1.67c0-0.481,0.39-0.871,0.871-0.871h21.644c0.481,0,0.871,0.39,0.871,0.871V63.749z   M69.827,55.644c0,0.481-0.39,0.871-0.871,0.871H47.311c-0.481,0-0.871-0.39-0.871-0.871v-1.67c0-0.481,0.39-0.871,0.871-0.871  h21.644c0.481,0,0.871,0.39,0.871,0.871V55.644z M69.827,47.54c0,0.481-0.39,0.871-0.871,0.871H47.311  c-0.481,0-0.871-0.39-0.871-0.871v-1.67c0-0.481,0.39-0.871,0.871-0.871h21.644c0.481,0,0.871,0.39,0.871,0.871V47.54z   M93.891,23.38v37.231c0,3.562-2.887,6.449-6.449,6.449h-4.367v-5.752h4.367c0.384,0,0.697-0.313,0.697-0.697V23.38  c0-0.384-0.313-0.697-0.697-0.697H28.04c-0.384,0-0.697,0.313-0.697,0.697v4.893h-5.752V23.38c0-3.562,2.887-6.449,6.449-6.449  h59.403C91.004,16.931,93.891,19.818,93.891,23.38z"/><text x="0" y="115" fill="#000000" font-size="5px" font-weight="bold" font-family="'Helvetica Neue', Helvetica, Arial-Unicode, Arial, Sans-serif">Created by Gregor Črešnar</text><text x="0" y="120" fill="#000000" font-size="5px" font-weight="bold" font-family="'Helvetica Neue', Helvetica, Arial-Unicode, Arial, Sans-serif">from the Noun Project</text></svg>