<svg xmlns="http://www.w3.org/2000/svg" xmlns:xlink="http://www.w3.org/1999/xlink" version="1.1" x="0px" y="0px" viewBox="0 0 48 60" enable-background="new 0 0 48 48" xml:space="preserve"><g><path fill="#000000" d="M7.343,21.918h3.002c0.165,0,0.298-0.133,0.298-0.298v-3.002c0-0.165-0.133-0.298-0.298-0.298H7.343   c-0.165,0-0.298,0.133-0.298,0.298v3.002C7.045,21.785,7.178,21.918,7.343,21.918z"/></g><g><rect x="12.536" y="18.465" fill="#000000" width="27.957" height="3.309"/></g><g><path fill="#000000" d="M7.343,26.983h3.002c0.165,0,0.298-0.133,0.298-0.298v-3.001c0-0.165-0.133-0.298-0.298-0.298H7.343   c-0.165,0-0.298,0.133-0.298,0.298v3.001C7.045,26.85,7.178,26.983,7.343,26.983z"/></g><g><rect x="12.536" y="23.53" fill="#000000" width="27.957" height="3.308"/></g><g><path fill="#000000" d="M7.343,32.049h3.002c0.165,0,0.298-0.133,0.298-0.298v-3.002c0-0.165-0.133-0.298-0.298-0.298H7.343   c-0.165,0-0.298,0.133-0.298,0.298v3.002C7.045,31.915,7.178,32.049,7.343,32.049z"/></g><g><rect x="12.536" y="28.595" fill="#000000" width="27.957" height="3.309"/></g><g><path fill="#000000" d="M7.343,37.113h3.002c0.165,0,0.298-0.133,0.298-0.298v-3.002c0-0.165-0.133-0.298-0.298-0.298H7.343   c-0.165,0-0.298,0.133-0.298,0.298v3.002C7.045,36.98,7.178,37.113,7.343,37.113z"/></g><g><rect x="12.536" y="33.659" fill="#000000" width="27.957" height="3.309"/></g><g><path fill="#000000" d="M45.766,41.638H2.237C1.003,41.638,0,40.634,0,39.401V8.475c0-1.232,1.003-2.236,2.237-2.236h43.529   c1.233,0,2.237,1.003,2.237,2.236v30.926C48.003,40.634,46.999,41.638,45.766,41.638z M2.237,7.723   c-0.415,0-0.753,0.337-0.753,0.752v30.926c0,0.415,0.338,0.753,0.753,0.753h43.529c0.415,0,0.753-0.338,0.753-0.753V8.475   c0-0.415-0.338-0.752-0.753-0.752H2.237z M44.895,38.996H3.108V14.948h41.787V38.996z M4.591,37.513h38.82V16.431H4.591V37.513z    M14.265,13.584c-0.914,0-1.691-0.591-1.972-1.411c-0.281,0.82-1.058,1.411-1.972,1.411c-1.042,0-1.908-0.769-2.062-1.768   c-0.154,1-1.02,1.768-2.062,1.768c-1.149,0-2.084-0.936-2.084-2.086c0-1.149,0.935-2.085,2.084-2.085   c1.042,0,1.908,0.768,2.062,1.767c0.154-1,1.02-1.767,2.062-1.767c0.914,0,1.691,0.591,1.972,1.41   c0.281-0.819,1.058-1.41,1.972-1.41c1.15,0,2.086,0.936,2.086,2.085C16.351,12.648,15.415,13.584,14.265,13.584z M14.265,10.896   c-0.331,0-0.601,0.269-0.601,0.602s0.269,0.603,0.601,0.603c0.332,0,0.603-0.27,0.603-0.603S14.597,10.896,14.265,10.896z    M10.32,10.896c-0.332,0-0.603,0.269-0.603,0.602S9.988,12.1,10.32,12.1c0.331,0,0.601-0.27,0.601-0.603   S10.652,10.896,10.32,10.896z M6.196,10.896c-0.331,0-0.601,0.269-0.601,0.602S5.865,12.1,6.196,12.1   c0.332,0,0.603-0.27,0.603-0.603S6.529,10.896,6.196,10.896z"/></g><text x="0" y="63" fill="#000000" font-size="5px" font-weight="bold" font-family="'Helvetica Neue', Helvetica, Arial-Unicode, Arial, Sans-serif">Created by Ainsley Wagoner</text><text x="0" y="68" fill="#000000" font-size="5px" font-weight="bold" font-family="'Helvetica Neue', Helvetica, Arial-Unicode, Arial, Sans-serif">from the Noun Project</text></svg>