<svg xmlns="http://www.w3.org/2000/svg" xmlns:xlink="http://www.w3.org/1999/xlink" version="1.1" x="0px" y="0px" viewBox="0 0 100 125" enable-background="new 0 0 100 100" xml:space="preserve"><path d="M59.974,44.539c1.463-2.047,2.265-4.509,2.265-7.093c0-6.748-5.489-12.238-12.238-12.238s-12.238,5.49-12.238,12.238  c0,2.584,0.802,5.046,2.265,7.093c-6.454,3.586-10.608,10.46-10.608,17.983c0,1.461,0.165,2.955,0.492,4.439l0.201,0.919  l0.802,0.495c5.729,3.543,12.33,5.416,19.087,5.416s13.357-1.873,19.087-5.416l0.802-0.495l0.201-0.919  c0.327-1.484,0.492-2.979,0.492-4.439C70.582,54.999,66.428,48.125,59.974,44.539z M65.921,65.085  c-4.177,2.411-8.843,3.83-13.655,4.172l-1.294-17.334l1.362-2.423h-4.5l1.354,2.409l0,0L47.9,69.272  c-4.871-0.319-9.596-1.749-13.821-4.188c-0.14-0.862-0.211-1.721-0.211-2.562c0-6.759,4.282-12.85,10.655-15.155l3.739-1.353  l-3.109-2.479c-1.87-1.491-2.941-3.71-2.941-6.089c0-4.295,3.493-7.788,7.788-7.788s7.788,3.493,7.788,7.788  c0,2.379-1.071,4.598-2.941,6.089l-3.109,2.479l3.739,1.353c6.373,2.306,10.655,8.396,10.655,15.155  C66.132,63.364,66.061,64.223,65.921,65.085z"/><text x="0" y="115" fill="#000000" font-size="5px" font-weight="bold" font-family="'Helvetica Neue', Helvetica, Arial-Unicode, Arial, Sans-serif">Created by Chris Provins</text><text x="0" y="120" fill="#000000" font-size="5px" font-weight="bold" font-family="'Helvetica Neue', Helvetica, Arial-Unicode, Arial, Sans-serif">from the Noun Project</text></svg>